<?xml version="1.0" encoding="UTF-8" standalone="no"?>
<!-- Generator: Adobe Illustrator 23.0.0, SVG Export Plug-In . SVG Version: 6.00 Build 0)  -->

<svg
   xmlns:dc="http://purl.org/dc/elements/1.1/"
   xmlns:cc="http://creativecommons.org/ns#"
   xmlns:rdf="http://www.w3.org/1999/02/22-rdf-syntax-ns#"
   xmlns:svg="http://www.w3.org/2000/svg"
   xmlns="http://www.w3.org/2000/svg"
   xmlns:sodipodi="http://sodipodi.sourceforge.net/DTD/sodipodi-0.dtd"
   xmlns:inkscape="http://www.inkscape.org/namespaces/inkscape"
   version="1.1"
   id="Layer_1"
   x="0px"
   y="0px"
   viewBox="0 0 14.3 25.200001"
   xml:space="preserve"
   sodipodi:docname="logo_tumblr.svg"
   width="14.3"
   height="25.200001"
   inkscape:version="0.92.3 (2405546, 2018-03-11)"><metadata
   id="metadata1365"><rdf:RDF><cc:Work
       rdf:about=""><dc:format>image/svg+xml</dc:format><dc:type
         rdf:resource="http://purl.org/dc/dcmitype/StillImage" /><dc:title></dc:title></cc:Work></rdf:RDF></metadata><defs
   id="defs1363" /><sodipodi:namedview
   pagecolor="#ffffff"
   bordercolor="#666666"
   borderopacity="1"
   objecttolerance="10"
   gridtolerance="10"
   guidetolerance="10"
   inkscape:pageopacity="0"
   inkscape:pageshadow="2"
   inkscape:window-width="1533"
   inkscape:window-height="845"
   id="namedview1361"
   showgrid="false"
   fit-margin-top="0"
   fit-margin-left="0"
   fit-margin-right="0"
   fit-margin-bottom="0"
   inkscape:zoom="6.58"
   inkscape:cx="7.1"
   inkscape:cy="12.6"
   inkscape:window-x="67"
   inkscape:window-y="27"
   inkscape:window-maximized="1"
   inkscape:current-layer="Layer_1" />
<style
   type="text/css"
   id="style1354">
	.st0{fill:#666666;}
</style>
<g
   id="g1358"
   transform="translate(-42.9,-37.4)">
	<path
   class="st0"
   d="m 51.3,42.9 v -5.5 h -3.5 c -0.1,0.2 -0.1,0.4 -0.1,0.7 0,0.1 -0.1,0.2 -0.1,0.3 -0.4,2 -1.4,3.5 -3.2,4.2 -0.5,0.2 -1,0.3 -1.5,0.2 v 4.4 h 2.6 c 0,6.2 0,9.4 0,9.6 v 0.4 c 0.3,2.7 1.7,4.3 4.3,5 1,0.3 2.1,0.4 3.2,0.4 1.4,0 2.8,-0.3 4.2,-0.7 v -5.2 c -0.8,0.2 -1.5,0.4 -2.2,0.7 -1.3,0.4 -2.3,0.1 -3.2,-0.7 -0.1,-0.1 -0.2,-0.3 -0.2,-0.5 -0.1,-0.7 -0.2,-1.3 -0.2,-2 V 47.3 H 57 v -4.4 z m 0,0"
   id="path1356"
   inkscape:connector-curvature="0"
   style="fill:#666666" />
</g>
</svg>