<?xml version="1.0" encoding="UTF-8" standalone="no"?>
<!-- Generator: Adobe Illustrator 23.0.0, SVG Export Plug-In . SVG Version: 6.00 Build 0)  -->

<svg
   xmlns:dc="http://purl.org/dc/elements/1.1/"
   xmlns:cc="http://creativecommons.org/ns#"
   xmlns:rdf="http://www.w3.org/1999/02/22-rdf-syntax-ns#"
   xmlns:svg="http://www.w3.org/2000/svg"
   xmlns="http://www.w3.org/2000/svg"
   xmlns:sodipodi="http://sodipodi.sourceforge.net/DTD/sodipodi-0.dtd"
   xmlns:inkscape="http://www.inkscape.org/namespaces/inkscape"
   version="1.0"
   id="Layer_1"
   x="0px"
   y="0px"
   viewBox="0 0 21 17.021894"
   enable-background="new 0 0 100 100"
   xml:space="preserve"
   sodipodi:docname="logo_twitter.svg"
   width="21"
   height="17.021894"
   inkscape:version="0.92.3 (2405546, 2018-03-11)"><metadata
   id="metadata1787"><rdf:RDF><cc:Work
       rdf:about=""><dc:format>image/svg+xml</dc:format><dc:type
         rdf:resource="http://purl.org/dc/dcmitype/StillImage" /><dc:title></dc:title></cc:Work></rdf:RDF></metadata><defs
   id="defs1785" /><sodipodi:namedview
   pagecolor="#ffffff"
   bordercolor="#666666"
   borderopacity="1"
   objecttolerance="10"
   gridtolerance="10"
   guidetolerance="10"
   inkscape:pageopacity="0"
   inkscape:pageshadow="2"
   inkscape:window-width="640"
   inkscape:window-height="480"
   id="namedview1783"
   showgrid="false"
   fit-margin-top="0"
   fit-margin-left="0"
   fit-margin-right="0"
   fit-margin-bottom="0"
   inkscape:zoom="2.36"
   inkscape:cx="10.5"
   inkscape:cy="8.5118951"
   inkscape:window-x="67"
   inkscape:window-y="27"
   inkscape:window-maximized="0"
   inkscape:current-layer="Layer_1" />
<path
   d="M 19.45,2.41 C 18.99,2.54 18.64,2.52 18.64,2.52 L 18.65,2.43 C 19.07,2.09 20.14,1.05 20.28,0.56 20.34,0.35 20.27,0.28 20.27,0.27 L 18.9,0.85 17.76,1.37 v 0 C 16.97,0.54 15.78,0 14.44,0 c -2.38,0 -4.3,1.68 -4.3,3.76 0,0.38 0.06,1.07 0.18,1.42 0,0.11 0,-0.11 0,0 C 8.79,5.14 6.83,4.51 5.08,3.63 1.64,1.89 1.42,0.68 1.42,0.68 0.88,1.25 0.6,3.16 1.15,4.65 1.5,5.6 2.71,6.46 2.71,6.46 v 0 c 0,0 -0.54,0.01 -1.1,-0.18 C 1.04,6.09 0.83,5.9 0.83,5.9 c -0.34,0.82 0.34,2.28 1.5,3.33 0.68,0.61 1.92,1 1.92,1 l -1.94,0.05 c -0.11,1.88 3.95,3 3.95,3 v 0 C 5.07,14.19 3.69,14.75 2.21,14.75 1.44,14.75 0.7,14.64 0,14.43 1.96,16.04 4.47,17.15 7.2,17.01 14.45,16.63 18.54,10.4 18.74,4.28 l 0.01,0.01 c 0,0 0.34,-0.17 1.07,-0.9 C 20.55,2.66 21,1.81 21,1.81 c 0,0 -1.09,0.48 -1.55,0.6 z"
   id="path1780"
   inkscape:connector-curvature="0"
   style="fill:#666666" />
</svg>