<?xml version="1.0" encoding="utf-8"?>
<!-- Generator: Adobe Illustrator 23.0.1, SVG Export Plug-In . SVG Version: 6.00 Build 0)  -->
<svg version="1.0" id="Layer_1" xmlns="http://www.w3.org/2000/svg" xmlns:xlink="http://www.w3.org/1999/xlink" x="0px" y="0px"
	 viewBox="0 0 210 210" enable-background="new 0 0 210 210" xml:space="preserve">
<g>
	<path fill="#DB5DC9" d="M110,84.3l29.7,15c0.1,0,0.1,0.1,0.2,0.1h9.6c0.2,0,0.4-0.2,0.5-0.4s-0.1-0.5-0.3-0.6l-29.7-15
		c-0.1,0-0.1-0.1-0.2-0.1h-9.6c-0.2,0-0.4,0.2-0.5,0.4S109.8,84.2,110,84.3z M119.6,84.4l27.7,14H140l-27.7-14H119.6z"/>
	<path fill="#DB5DC9" d="M206.2,120.2C206.2,120.2,206.1,120.2,206.2,120.2c0-0.1,0-0.1-0.1-0.1c0,0,0,0,0,0c0,0,0,0,0,0
		c0,0,0-0.1-0.1-0.1c0,0,0,0,0,0c0,0,0,0-0.1,0c0,0,0,0,0,0c0,0,0,0,0,0L91.2,62c-0.1,0-0.1-0.1-0.2-0.1H64.1v-3V38.8h25.5
		c0.3,0,0.5-0.2,0.5-0.5V24c0-0.3-0.2-0.5-0.5-0.5H77.9c-0.3,0-0.5,0.2-0.5,0.5v7.9h-5.1V24c0-0.3-0.2-0.5-0.5-0.5H0.6
		c-0.3,0-0.5,0.2-0.5,0.5v14.3c0,0.3,0.2,0.5,0.5,0.5h25.5v20.1v21c0,10.4,8.5,18.9,18.9,19l0.7,39.9c0,0.2,0.1,0.4,0.3,0.4
		l91.1,46.4c0.1,0,0.1,0.1,0.2,0.1c0,0,0,0,0,0c0,0,0,0,0,0h37c0.1,0,0.2,0,0.3-0.1c0,0,0,0,0,0c0.1,0,0.1-0.1,0.2-0.2c0,0,0,0,0,0
		l24.9-51.5l9.5,4.8c0.1,0,0.1,0.1,0.2,0.1c0.1,0,0.2,0,0.3-0.1c0.2-0.1,0.2-0.3,0.2-0.5L206.2,120.2z M174.2,184.2l-2.9-4.2
		l24.7-51c0,0,0.1-0.1,0.1-0.1l3.9-8h4.8l-4.9,10.2L174.2,184.2z M195.4,128.1h-29.9l3.5-7.3h29.9L195.4,128.1z M157.6,150.9
		c0.3-0.7,0.6-1.5,0.9-2.2c0.3-0.7,0.6-1.3,1-2c1.3-2.5,2.7-4.6,4.2-6.5c2.4-2.6,4.9-4,6.6-3.2c1.3,0.6,2,2.6,1.9,5.4
		c-0.1,3-1.1,6.6-2.7,10.2c-3.3,7.1-8.5,12-11.4,10.6C155.8,162,155.6,156.8,157.6,150.9z M155.3,159.6c0.2,2.2,1,3.8,2.5,4.5
		c0.4,0.2,0.9,0.3,1.4,0.3c3.4,0,8.1-4.6,11.3-11.4c1.7-3.7,2.7-7.4,2.8-10.5c0.1-3.3-0.8-5.5-2.5-6.3c-0.8-0.4-1.7-0.4-2.7-0.1
		c2.1-1.6,4.2-2.2,5.7-1.5c3.8,1.8,3.4,11.2-0.9,20.6c-2.2,4.7-5,8.7-7.9,11.4c-2.8,2.5-5.4,3.5-7.2,2.6
		C155.5,168,154.7,164.3,155.3,159.6z M154.1,162.9c0.1,3.5,1.1,6.1,3.2,7.1c0.6,0.3,1.2,0.4,1.8,0.4c1.9,0,4.1-1.1,6.5-3.2
		c3-2.7,5.9-6.9,8.1-11.7c4.7-10.2,4.9-19.8,0.4-21.9c-1.8-0.9-4.1-0.3-6.5,1.4c0.5-0.5,1-1,1.5-1.4c3.8-3.5,7.3-4.7,9.8-3.6
		c2.5,1.2,3.8,4.6,3.6,9.8c-0.2,5.3-1.9,11.7-4.8,18c-2.9,6.3-6.7,11.7-10.6,15.3c-3.8,3.5-7.3,4.7-9.8,3.6
		c-2.5-1.2-3.8-4.6-3.6-9.8C153.8,165.6,153.9,164.3,154.1,162.9z M42.1,80.8l12.1-17.8l75.1,37.9l38.7,19.5l-12.1,17.8l-39.2,4.2
		L42.1,80.8z M159.8,139.9l5.2-10.8h9.1c-1.8,0.7-3.7,1.9-5.6,3.7c-2.5,2.3-5,5.4-7.3,8.9c-1.1,1.6-2.2,3.4-3.2,5.5
		c-0.5,1-0.9,2-1.2,3c-2.5,5.8-3.9,11.7-4.1,16.6c-0.2,5.6,1.3,9.4,4.2,10.8c0.7,0.3,1.5,0.5,2.4,0.5c2.5,0,5.4-1.4,8.5-4.2
		c4-3.7,7.9-9.2,10.9-15.6c3-6.4,4.7-12.9,4.9-18.4c0.2-5.5-1.3-9.3-4.1-10.7h15.3l-24.4,50.4h-29.8L159.8,139.9z M203.6,119.8h-3.8
		h0h-30.9l0,0l-91-46.3c-0.2-0.1-0.3-0.1-0.5,0l-0.1,0.1L56.1,62.9h7.6h27.2L203.6,119.8z M63.1,58.4H38.8V38.8h24.3V58.4z
		 M1.1,24.5h70.2v7.9c0,0.3,0.2,0.5,0.5,0.5h6.1c0.3,0,0.5-0.2,0.5-0.5v-7.9h10.8v13.3H64c-0.1-0.1-0.2-0.2-0.4-0.2H38.3H26.6
		c-0.2,0-0.3,0.1-0.4,0.2H1.1V24.5z M37.8,38.8v19.6H27.1V38.8H37.8z M45,97.9c-9.9-0.1-17.9-8.1-17.9-18V59.4h11.2h24.8v2.5H54
		c0,0,0,0-0.1,0c0,0-0.1,0-0.1,0c0,0,0,0-0.1,0c0,0,0,0,0,0c0,0,0,0,0,0c0,0-0.1,0.1-0.1,0.1c0,0,0,0,0,0L41,80.7
		c-0.1,0.2-0.1,0.5,0.1,0.7l10.1,8.4l-3.1,1.9l-2.9,1.8c-0.1,0.1-0.2,0.3-0.2,0.4L45,97.9z M46,98.4C46,98.4,46,98.4,46,98.4
		l-0.1-4.3l6-3.7l64.1,53.2c0,0,0.1,0.1,0.2,0.1c0,0,0,0,0.1,0c0,0,0.1,0,0.1,0c0,0,0,0,0.1,0l39.7-4.3c0.1,0,0.3-0.1,0.4-0.2
		l8.8-12.9l-26,53.6c0,0.1-0.1,0.2,0,0.3l-2.2,4.5l-90.4-46L46,98.4z M140.1,180.5h30.4l2.9,4.2h-35.2L140.1,180.5z M200.1,133
		l2.7-5.6l2.7-5.6l3.2,15.5L200.1,133z"/>
	<path fill="#DB5DC9" d="M82.3,148.3l-29.2-14.9c-0.1-0.1-0.3-0.1-0.4,0c-0.1,0-0.2,0.1-0.3,0.2l-1.7,3.3c0,0,0,0,0,0.1
		c0,0,0,0.1,0,0.1c0,0,0,0.1,0,0.1c0,0,0,0,0,0.1c0,0,0,0,0,0c0,0.1,0.1,0.2,0.2,0.2c0,0,0,0,0,0c0,0,0,0,0,0l29.2,14.9
		c0.1,0,0.2,0.1,0.2,0.1c0.2,0,0.4-0.1,0.4-0.3l1.7-3.3c0.1-0.1,0.1-0.3,0-0.4S82.4,148.3,82.3,148.3z M80.8,150.1l-26.9-13.7
		l0.6-1.1l26.9,13.7L80.8,150.1z M53.1,134.5l0.5,0.3l-0.7,1.4l-0.8,0.2L53.1,134.5z M52.6,137.3l0.6-0.2L80.4,151l-0.2,0.4
		L52.6,137.3z"/>
	<path fill="#DB5DC9" d="M85.6,142.9l-27.8-14.2c0,0,0,0,0,0l-1.4-0.7c-0.2-0.1-0.5,0-0.7,0.2l-1.7,3.3c0,0,0,0,0,0.1
		c0,0,0,0.1,0,0.1c0,0,0,0.1,0,0.1c0,0,0,0.1,0,0.1c0,0,0,0,0,0c0,0,0,0,0,0c0,0.1,0.1,0.2,0.2,0.2c0,0,0,0,0,0c0,0,0,0,0,0
		l29.2,14.9c0.1,0,0.1,0.1,0.2,0.1c0.1,0,0.1,0,0.2,0c0.1,0,0.2-0.1,0.3-0.2l0.6-1.3c0,0,0,0,0,0l1-2
		C85.9,143.3,85.8,143,85.6,142.9z M84.1,144.7L57.2,131l0.6-1.1l26.9,13.7L84.1,144.7z M56.4,129.2l0.5,0.3l-0.7,1.4l-0.8,0.2
		L56.4,129.2z M55.9,131.9l0.6-0.2l27.2,13.8l-0.2,0.4L55.9,131.9z"/>
</g>
</svg>
