<?xml version="1.0" encoding="utf-8"?>
<!-- Generator: Adobe Illustrator 23.0.1, SVG Export Plug-In . SVG Version: 6.00 Build 0)  -->
<svg version="1.0" id="Layer_1" xmlns="http://www.w3.org/2000/svg" xmlns:xlink="http://www.w3.org/1999/xlink" x="0px" y="0px"
	 viewBox="0 0 210 210" enable-background="new 0 0 210 210" xml:space="preserve">
<g>
	<path fill="#DB5DC9" d="M41.5,96c2.3,11.3,9.6,19.5,16.9,19.5c0.6,0,1.3-0.1,1.9-0.2c7.8-1.6,12.1-12.9,9.6-25.2
		c0-0.2-0.1-0.4-0.1-0.6c0-0.1,0-0.2,0-0.3c0-0.1,0-0.1,0-0.2c0-0.1,0-0.1,0-0.2c0-0.1-0.1-0.2-0.1-0.3c0-0.1,0-0.2-0.1-0.3
		c-0.2-1.1-0.6-2.1-1-3c-0.1-0.3-0.3-0.7-0.4-1c-3.6-9-10.5-14.7-17-13.4c-3.8,0.8-6.9,3.9-8.7,8.7C40.6,84.3,40.3,90.1,41.5,96z
		 M67.4,85.4c0.5,1.3,0.9,2.6,1.2,4c0.6,4.6-1.2,8.8-4.4,9.4c-3.4,0.7-6.9-2.8-8-7.8c-0.5-2.4-0.3-4.9,0.5-6.8
		c0.8-1.9,2.1-3.1,3.7-3.5c0.3-0.1,0.6-0.1,0.9-0.1c1.3,0,2.7,0.6,3.9,1.8C66.2,83.2,66.9,84.2,67.4,85.4z M64.1,80.3
		c-1.2-0.6-2.5-0.8-3.8-0.6c-1.9,0.4-3.5,1.8-4.4,4c-0.9,2.1-1.1,4.8-0.6,7.4c1,5,4.5,8.7,8.1,8.7c0.3,0,0.7,0,1-0.1
		c2-0.4,3.5-1.9,4.4-4c-0.6,4.3-2.8,7.5-6,8.1c-2.2,0.5-4.6-0.4-6.7-2.5c-2.1-2.1-3.7-5.2-4.4-8.8c-1.5-7.2,1.1-13.8,5.7-14.8
		c0.4-0.1,0.8-0.1,1.1-0.1C60.5,77.7,62.4,78.7,64.1,80.3z M57.3,76.9c-5.2,1.1-8.1,8.2-6.5,15.9c0.8,3.7,2.4,7,4.7,9.3
		c1.9,1.9,4.1,2.9,6.2,2.9c0.5,0,0.9,0,1.4-0.1c2.1-0.4,3.9-1.9,5.1-4c-0.1,0.4-0.2,0.7-0.4,1.1c-1.5,3.5-3.9,5.8-6.9,6.4
		c-3,0.6-6.1-0.5-8.9-3.2c-2.8-2.7-4.9-6.6-5.8-11.1C44.3,85,47.8,76.5,54,75.2c0.5-0.1,1.1-0.2,1.6-0.2c2.2,0,4.4,0.9,6.4,2.5
		C60.5,76.8,58.9,76.6,57.3,76.9z M43.3,79.9c1.7-4.5,4.5-7.3,8-8.1c0.6-0.1,1.1-0.2,1.7-0.2c3.2,0,6.5,1.8,9.2,4.9
		c-2.7-2-5.6-2.8-8.4-2.2c-6.7,1.4-10.6,10.4-8.6,20.1c1,4.7,3.1,8.8,6.1,11.6c2.5,2.4,5.2,3.6,8,3.6c0.6,0,1.2-0.1,1.8-0.2
		c3.3-0.7,6-3.2,7.6-7c0.3-0.7,0.5-1.4,0.7-2.2c-0.7,7.4-4.2,13.2-9.4,14.2c-7.3,1.5-15.2-6.8-17.6-18.6
		C41.3,90.1,41.6,84.4,43.3,79.9z"/>
	<path fill="#DB5DC9" d="M177,63.6c-0.1-0.3-0.3-0.4-0.6-0.4L85,88.2c-0.3,0.1-0.4,0.3-0.4,0.6c0.1,0.2,0.3,0.4,0.5,0.4
		c0,0,0.1,0,0.1,0l91.4-24.9C176.9,64.1,177,63.8,177,63.6z"/>
	<path fill="#DB5DC9" d="M176.8,67c-0.1-0.3-0.3-0.4-0.6-0.4L87.7,90.7c-0.3,0.1-0.4,0.3-0.4,0.6c0.1,0.2,0.3,0.4,0.5,0.4
		c0,0,0.1,0,0.1,0l88.5-24.1C176.7,67.5,176.9,67.2,176.8,67z"/>
	<path fill="#DB5DC9" d="M196.6,123.5c0-0.2-0.1-0.3-0.3-0.4c-0.2-0.1-0.3-0.1-0.5,0l0,0c-0.1-0.1-0.3-0.3-0.6-0.3l-31.3-8.4
		c-0.7-0.2-1.6-0.1-2.2,0.3l-2.4,1.4c-0.4,0.2-0.5,0.4-0.5,0.6c-0.4,0.1-0.7,0.2-1,0.4c-0.6,0.4-0.9,1.1-0.9,1.8l0,13l-12.6,7.1
		c0.2-0.8,0.3-1.6,0.3-2.5c0-0.1,0-0.1,0-0.2c0-0.1,0-0.1,0-0.2c0-2.9-1-5.6-2.5-7.4c-0.3-2.2,1-8.4,3.6-11.3
		c2.1-2.4,2.7-4.6,2.9-5.5c0.7-0.3,1.1-0.4,1.3-0.5c0.4-0.1,1.8-0.5,2.4-3c0.5-2.1,0.8-4.4,0.9-5.1l3-1c0.3-0.1,6.8-3,11.9-10.4
		c0,0,0-0.1,0.1-0.1c0.1-0.3,0.2-0.6,0.3-0.8c0.2-0.1,0.2-0.3,0.2-0.5c0,0,0,0,0,0c0.4-1.3,0.6-2.4,0.7-3c1.7-0.4,2.7-0.6,3-0.7
		c2.4-0.4,2.5-4.4,2.3-6.4c9.2-6.8,16.3-22,11.8-34.8c-5.9-16.6-28.7-23.9-46.3-20.2c0,0-0.1,0-0.1,0l-5.6-1.3c-0.1,0-0.1,0-0.2,0
		L23.4,47.6c0,0-0.1,0-0.1,0c0,0,0,0-0.1,0c0,0,0,0,0,0c0,0,0,0,0,0c-0.3,0.2-9.8,5.7-10,16.8c-0.1,10.9,0,12.5,0,12.5
		c0,0.3,0.2,0.5,0.5,0.5h13.7c-1.3,7-1.2,14.8,0.4,22.7c2.2,10.8,7,20.4,13.5,27.1c5.4,5.6,11.5,8.5,17.4,8.5c1.2,0,2.4-0.1,3.5-0.4
		c2.3-0.5,4.5-1.4,6.5-2.8v5.6c0,0.1,0,0.1,0,0.2c0,0.1,1.2,2.6,6.7,2.6c5.4,0,7.5-3,7.6-3.1c0.1-0.1,0.1-0.2,0.1-0.3v-5.4
		c0.8,0.1,1.8,0.2,2.8,0.2c2.3,0,5-0.4,8.2-1.3c2.4-0.7,6-1.9,10.3-3.4c0.1,0.6,0.1,1.7-0.1,3.4c-0.4,2.8,1.8,5.3,2.4,5.9
		c0.1,0.6,0.2,2.5,0,5.2c-0.3,3,1.5,4.8,2.1,5.4c0,0,0,0.1,0,0.1c-0.1,7.1,0,17.1,0,17.2c0,0.1,0,0.2,0.1,0.3
		c0.1,0.2,1.8,2.5,5.9,4.2v4.6c0,0.2,0.1,0.4,0.3,0.5c0.1,0,1.4,0.7,3.6,1.1v2.1c0,0.2,0.1,0.3,0.3,0.4c0.1,0.1,2.5,1.4,4.7,1.4
		c2.3,0,3.7-1.4,3.7-1.4c0.1-0.1,0.1-0.2,0.1-0.4v-2c2-0.4,3.1-1,3.1-1.1c0.2-0.1,0.3-0.3,0.3-0.4v-3.7c4.7-0.7,7.9-2,10.8-3.2
		c0.7-0.3,1.5-0.6,2.2-0.9c1.3-0.5,5.7-2,13-2.6l0,11.9c0,1,0.7,2,1.7,2.2l31,8.1c0.2,0.1,0.4,0.1,0.6,0.1c0.5,0,1-0.2,1.4-0.5
		c0.1-0.1,0.2-0.2,0.3-0.3c0,0,0.1,0,0.1,0c0.1,0,0.2,0,0.2-0.1l4.1-2.4c0.2-0.1,0.3-0.3,0.3-0.4L196.6,123.5z M162.2,115.4
		c0.4-0.2,1-0.3,1.4-0.2l31.1,8.4l-2.2,1.3c-0.4,0.2-1,0.3-1.4,0.2l-0.4-0.1c0,0,0,0,0,0l-30.7-8.3L162.2,115.4z M142.1,130.2
		c-0.6-0.5-1.4-0.8-2.2-0.8c-2.6,0-4.7,3.1-4.7,7s2.1,7,4.7,7c0.4,0,0.8-0.1,1.1-0.2c-1.1,1.2-2.5,1.9-4,1.9c-3.6,0-6.6-4.1-6.6-9
		s3-9,6.6-9C139,127,140.8,128.3,142.1,130.2z M139.9,142.4c-2.1,0-3.7-2.7-3.7-6c0-3.3,1.7-6,3.7-6c2,0,3.6,2.6,3.7,5.8
		c0,1.1-0.2,2.1-0.4,3C142.6,141.1,141.3,142.4,139.9,142.4z M139.5,145.5c1.9-0.9,3.5-2.8,4.4-5.2l13.7-7.8c0,0,0,0,0,0l3.2-1.8
		l23.3,4.3c-7.1,2.7-34.9,13-39.1,13.4c-3.6,0.3-5.1-0.1-5.5-0.3V145.5z M145,116.7c-2.4,2.6-3.8,7.9-3.9,10.9
		c-1.2-1-2.6-1.6-4.1-1.6c-4,0-7.2,4-7.6,9.1c-2.4-3.8-8.7-6.6-13-7.4c-2.8-0.5-4.5-1.5-5.3-2.2c13.7-4.8,30.3-11,36.4-13.3
		C147.2,113.3,146.6,114.9,145,116.7z M155.9,101.3l-74.3,25c2-1.6,3.8-3.7,5.3-6.1c0,0,0,0,0,0l76.6-24.4
		C159.6,99.6,155.9,101.3,155.9,101.3z M74.9,128.6C74.9,128.6,74.9,128.6,74.9,128.6c-0.3,0.1-0.4,0.1-0.6,0.2
		c-0.4,0.1-0.9,0.2-1.4,0.2c1.3-1.5,2.5-3.3,3.6-5.3c0-0.1,0.1-0.1,0.1-0.2c0.3-0.6,0.6-1.2,0.9-1.9c0,0,0-0.1,0.1-0.1
		c0.3-0.6,0.5-1.2,0.7-1.8c0-0.1,0.1-0.2,0.1-0.3c0-0.1,0.1-0.2,0.1-0.3c0.2-0.6,0.5-1.3,0.7-2c0-0.1,0.1-0.2,0.1-0.2
		c1.9-6.3,2.5-13.5,1.7-20.9c0,0,0,0,0,0c-0.1-0.9-0.2-1.8-0.3-2.8c0-0.1,0-0.2-0.1-0.3c-0.1-0.7-0.2-1.5-0.4-2.2
		c0-0.1,0-0.3-0.1-0.4l0.2,0.2c0.1,0.2,2.5,3.8,5.7,4.2c1,0.1,2.1,0.1,3.2,0.1c0.7,0,1.5,0,2.3,0c0,0.5,0,1,0,1.5c0,0,0,0.1,0,0.1
		c0,1.3,0,2.6-0.1,3.8c0,0.1-0.1,0.2,0,0.3c0,0,0,0,0,0c-0.2,3.2-0.6,6.3-1.4,9.2c-0.1,0.1-0.1,0.2-0.1,0.3
		c-0.4,1.5-0.8,2.8-1.3,4.2c-0.3,0.1-0.4,0.4-0.3,0.6c0,0,0,0,0.1,0.1c-2.5,6.2-6.3,10.7-11,12.8L74.9,128.6z M49.5,57.5l2,2.1
		l27.3,29.2l0,0.1l0,0c3.8,19.3-3,37-15.2,39.5C51.3,131,38,117.2,34,97.7c-4-19.5,2.7-37.5,15-40.1C49.2,57.6,49.3,57.6,49.5,57.5z
		 M91.9,105.7l12.8-4.3c0.6,0.4,1.2,0.6,1.9,0.6c0.1,0,0.2,0,0.3,0c1.6-0.2,21.4-4.9,39.1-9.1l-54.9,16.3
		C91.5,108.1,91.7,106.9,91.9,105.7z M92,104.6c0.2-1.3,0.3-2.5,0.4-3.9l8.5-2.7c0,0,0,0,0,0c0.7,0.6,1.3,1.2,1.9,1.7
		c0.3,0.3,0.6,0.6,1,0.9L92,104.6z M92.5,99.7c0-1,0.1-2,0.1-3l4-1.2c0.6,0.2,1.1,0.4,1.7,0.7c0.7,0.3,1.3,0.7,1.8,1.1L92.5,99.7z
		 M92.5,95.7c0-0.3,0-0.6,0-0.9c0.7,0,1.5,0.1,2.2,0.3L92.5,95.7z M164.9,94.3C164.9,94.3,164.9,94.3,164.9,94.3l-77.3,24.6
		c0.7-1.2,1.3-2.5,1.8-3.9l77.8-23.7c0,0,0,0,0,0C166.5,92.4,165.7,93.4,164.9,94.3z M167.7,90.1l-77.8,23.7
		c0.4-1.1,0.7-2.3,1.1-3.5l73.4-21.8c1.5-0.4,2.9-0.7,4-1C168.2,88.2,168,89.1,167.7,90.1z M172.2,85.7c-0.3,0-1.3,0.3-3,0.7
		c0,0-0.1,0-0.1,0c0,0-0.1,0-0.1,0c-0.1-0.1-0.3-0.1-0.4-0.1l-4.4,1.3c-2.8,0.7-6.3,1.5-10.1,2.4c-18,4.3-45.3,10.9-47.1,11
		c-1.2,0.1-2.1-0.7-3.4-2c-1.2-1.2-2.6-2.6-4.9-3.7c-2.3-1.2-4.6-1.5-6.7-1.6c0,0,0,0,0,0c0,0,0,0,0,0c-0.4,0-0.8,0-1.1,0
		c-0.1,0-0.2,0-0.3,0c-0.1,0-0.3,0-0.4,0c-0.3,0-0.7,0-1,0c-1.1,0-2.2,0.1-3.1-0.1c-2.8-0.4-5-3.7-5.1-3.8l-1.5-1.6c0,0,0,0,0,0
		l-32-34.2h0l-0.2-0.2l109.7-23.4l18.7,20c1.2,2.1,3.2,6.3,3.4,10.2v0c0.1,2.6-0.1,5.7-0.6,8.4c-0.4,2.1-0.9,3.4-1.2,3.8
		c-0.1,0.1-0.3,0.3-0.4,0.5c-1.3,1.4-3.6,3.9-3.4,6.1C173.9,81.8,173.7,85.4,172.2,85.7z M185.5,45.8c4.3,12.2-2.3,26.5-10.9,33.3
		c0-1.7,2.1-3.9,3.1-5.1c0.2-0.2,0.3-0.4,0.5-0.5c0.7-0.8,1.2-3.2,1.4-4.2c0.3-1.6,0.8-4.9,0.6-8.6c-0.2-4.2-2.3-8.5-3.6-10.7
		c0,0,0-0.1-0.1-0.1l-19-20.3c0,0,0,0,0,0c0,0-0.1-0.1-0.2-0.1c0,0,0,0,0,0c0,0,0,0,0,0l-15-3.6C159.3,23.2,180.1,30.3,185.5,45.8z
		 M134.3,24.9l20.7,5L46.5,53.1l-20.7-5L134.3,24.9z M14.3,76.5c0-1-0.1-3.9,0-12c0.1-9.8,8-15.1,9.3-15.9l15.8,3.8l6.7,1.6l0,0.1
		c-0.2,0-0.4,0.1-0.5,0.1c-0.5,0.1-1,0.2-1.5,0.4c-0.1,0-0.2,0.1-0.4,0.1c-0.4,0.1-0.8,0.3-1.1,0.4c-0.1,0-0.2,0.1-0.3,0.1
		c-0.4,0.2-0.9,0.4-1.3,0.6c0,0-0.1,0-0.1,0c-3.4,1.8-6.3,4.7-8.7,8.6c0,0.1-0.1,0.1-0.1,0.2c-0.3,0.5-0.5,0.9-0.8,1.4
		c-0.1,0.1-0.1,0.2-0.2,0.4c-0.2,0.5-0.5,0.9-0.7,1.4c-0.1,0.1-0.1,0.2-0.2,0.3c-0.3,0.6-0.5,1.2-0.7,1.8c0,0,0,0.1,0,0.1
		c0,0,0,0.1,0,0.1c-0.2,0.6-0.4,1.2-0.6,1.8c0,0.1-0.1,0.2-0.1,0.3c-0.2,0.6-0.4,1.2-0.5,1.8c0,0.1,0,0.1,0,0.2
		c-0.2,0.7-0.4,1.4-0.5,2.2H14.3z M62.1,134.5c-6.6,1.4-13.7-1.4-20-7.9c-6.3-6.5-11-16-13.2-26.6c-1.6-7.9-1.7-15.8-0.3-22.8
		c0,0,0,0,0,0c0.3-1.4,0.6-2.8,1-4.1c0-0.1,0.1-0.3,0.1-0.4c0.2-0.5,0.3-1,0.5-1.4c0.1-0.2,0.1-0.4,0.2-0.5c0.2-0.5,0.4-1,0.6-1.6
		c0-0.1,0.1-0.1,0.1-0.2c0.2-0.6,0.5-1.1,0.8-1.7c0.1-0.1,0.1-0.2,0.2-0.3c0.2-0.5,0.5-0.9,0.7-1.3c0.1-0.1,0.1-0.2,0.2-0.3
		c0.3-0.5,0.6-0.9,0.9-1.4c0,0,0,0,0-0.1c2.1-3,4.6-5.4,7.4-6.9c0,0,0,0,0,0c0.4-0.2,0.8-0.4,1.3-0.6c0.1,0,0.2-0.1,0.3-0.1
		c0.4-0.1,0.7-0.3,1.1-0.4c0.1,0,0.2-0.1,0.4-0.1c0.5-0.1,0.9-0.3,1.4-0.4c0.3-0.1,0.7-0.1,1-0.2c0.1,0,0.2,0,0.3,0l1.6,1.8
		C35.9,59.4,28.9,77.9,33,97.9c3.8,18.5,15.8,31.9,27.7,31.9c1,0,2.1-0.1,3.1-0.3c7.7-1.6,13.3-8.9,15.7-18.8
		c-0.2,1.4-0.5,2.7-0.8,4c0,0.1-0.1,0.3-0.1,0.4c-0.2,0.6-0.3,1.2-0.5,1.7c-0.1,0.2-0.1,0.4-0.2,0.6c-0.2,0.7-0.4,1.3-0.7,1.9
		c-0.1,0.2-0.2,0.4-0.3,0.6c-0.2,0.5-0.4,1-0.6,1.4c-0.1,0.2-0.2,0.4-0.3,0.6c-1.3,2.8-2.9,5.2-4.9,7.2c0,0,0,0,0,0
		C68.7,132,65.6,133.8,62.1,134.5z M82.2,137.5c-0.4,0.5-2.3,2.5-6.7,2.5c-4.2,0-5.5-1.6-5.7-2v-6.2c0.7-0.6,1.4-1.2,2.1-1.9
		c0.9,0,1.7-0.1,2.6-0.3c0.5-0.1,1-0.3,1.5-0.4c0.4,0.4,2.4,2.1,6.2,2.9V137.5z M94,130.3c-4.6,1.4-8.2,1.5-10.9,1
		c-0.1-0.1-0.2-0.2-0.4-0.2c-0.1,0-0.2,0-0.2,0.1c-2.9-0.6-4.6-1.7-5.4-2.3c0.2-0.1,0.4-0.2,0.7-0.3l74.3-25.1
		c-0.1,1-0.4,2.8-0.8,4.5c-0.5,2.1-1.6,2.3-1.6,2.3c0,0-0.1,0-0.1,0c0,0-0.5,0.2-1.3,0.5c0,0-0.1,0-0.1,0c-0.2,0-0.4,0.1-0.4,0.2
		c-5.6,2.1-23.4,8.7-37.6,13.7c-0.1,0-0.3,0-0.4,0.1c0,0-0.1,0.1-0.1,0.1c-1.6,0.6-3.1,1.1-4.5,1.6c-0.1-0.1-0.2-0.1-0.4,0
		c-0.1,0-0.2,0.1-0.3,0.3C100.1,128.3,96.4,129.5,94,130.3z M105.4,131.4c0.3-1.9,0.2-3.2,0.1-3.9c1.4-0.5,2.9-1,4.5-1.6
		c0.7,0.7,2.6,2.2,6.2,2.8c2.5,0.4,5.7,1.6,8.3,3.3v8c-1.1,0.2-13.9,1.9-16.7-2.6c0,0,0,0,0,0c0-0.3,0-0.5-0.1-0.5
		c0-0.1-0.1-0.2-0.2-0.3C107.6,136.5,105,134,105.4,131.4z M107.8,142.4c0.1-1.4,0.1-2.5,0.1-3.5c2.2,2,6.4,2.5,10.1,2.5
		c3.1,0,5.7-0.3,6.6-0.5v9.2c-3.5,0.4-11.8,0.9-14.1-1.2c-0.3-0.3-0.5-0.7-0.5-1.1c0-0.1,0-0.2,0-0.3c0,0,0,0,0,0c0,0,0-0.1,0-0.1
		c0,0,0-0.1,0-0.1c0,0,0-0.1,0-0.1c0,0,0-0.1-0.1-0.1c0,0,0,0,0,0C109.7,147,107.5,145.4,107.8,142.4z M126.6,177.4
		c-0.4,0.3-1.4,1-2.9,1c-1.5,0-3.3-0.8-3.9-1.1v-1.6c1,0.2,2.2,0.3,3.5,0.3c1.2,0,2.3-0.1,3.3-0.2V177.4z M130,173.8
		c-0.7,0.3-3,1.2-6.7,1.2c-1.4,0-2.6-0.1-3.6-0.3c-0.1-0.1-0.2-0.2-0.4-0.2c-0.1,0-0.2,0-0.2,0.1c-1.5-0.3-2.7-0.7-3.2-0.9v-3.9
		c2,0.7,4.5,1.2,7.5,1.2c0.1,0,0.3,0,0.4,0c2.3,0,4.3-0.2,6.1-0.4V173.8z M143.6,165.4c-0.7,0.3-1.5,0.6-2.2,0.9
		c-3,1.2-6.1,2.4-10.7,3.1c-0.1,0-0.2-0.1-0.3-0.1c-0.1,0-0.3,0.1-0.4,0.2c-1.8,0.2-3.9,0.4-6.3,0.4c-0.1,0-0.3,0-0.4,0
		c-8.9,0-12.8-4.4-13.5-5.1c0-1.2-0.1-8.7,0-15c3.3,2.9,14.7,1.4,15.2,1.3c0.2,0,0.4-0.2,0.4-0.5v-17.9c1.8,1.3,3.3,2.8,3.7,4.5
		c0,0.1,0.1,0.2,0.2,0.3c0.5,4.9,3.7,8.7,7.5,8.7c0.5,0,1-0.1,1.5-0.2v2.7c0,0.1,0.1,0.3,0.2,0.4c0.2,0.2,1.5,1.1,6.5,0.6
		c4.7-0.4,35.3-11.9,40.4-13.8c0.1,3.4,0.3,18.6,0,29.3C160.7,159.8,146.3,164.4,143.6,165.4z M191.1,184.8
		c-0.3,0.3-0.7,0.3-1.1,0.2l-31-8.1c-0.6-0.1-1-0.7-1-1.3l0-12c6.9-0.5,16.3-0.2,27.9,2.3c0.1,0,0.3,0,0.4-0.1
		c0.1-0.1,0.2-0.2,0.2-0.4c0.3-12.1,0-30.5,0-30.6c0,0,0,0,0,0c0-0.1,0-0.1,0-0.1c0,0,0,0,0-0.1c0-0.1-0.1-0.1-0.1-0.1c0,0,0,0,0,0
		c0,0,0,0,0,0c-0.1,0-0.1-0.1-0.2-0.1l-25.2-4.7c-0.1,0-0.2,0-0.3,0.1l-2.6,1.5l0-12.5c0-0.4,0.2-0.8,0.5-1c0.3-0.2,0.7-0.3,1-0.2
		c0,0,0.1,0,0.1,0.1l31,8.4c0.6,0.2,1,0.7,1,1.3l0,7.1l0.1,49.5C191.6,184.2,191.4,184.6,191.1,184.8z M192.6,184.1l-0.1-53.7l0-3.2
		c0,0,0,0,0,0l0-1.1l3.1-1.8l0.1,57.9L192.6,184.1z"/>
</g>
</svg>
