<?xml version="1.0" encoding="utf-8"?>
<!-- Generator: Adobe Illustrator 23.0.1, SVG Export Plug-In . SVG Version: 6.00 Build 0)  -->
<svg version="1.0" id="Layer_1" xmlns="http://www.w3.org/2000/svg" xmlns:xlink="http://www.w3.org/1999/xlink" x="0px" y="0px"
	 viewBox="0 0 210 210" enable-background="new 0 0 210 210" xml:space="preserve">
<g>
	<path fill="#DB5DC9" d="M178.9,62.3c0-0.1,0-0.1,0-0.2c-6.2-13.3-21.6-24.2-42.4-29.9c-0.2-0.1-0.5,0.1-0.6,0.3
		c-0.7,1.6-2,2.6-3.3,2.6c-1.9,0-3.5-1.9-3.8-4.3c0-0.2-0.2-0.4-0.4-0.4c-7.6-1.5-15.4-2.2-23.4-2.2C71,28.1,40.6,42,31.3,62
		c0,0.1,0,0.1,0,0.2V73c0,0,0,0,0,0c-0.1,1.7-0.2,3.7-0.2,6.1c0,10.7,3.8,21.4,5.3,25.4l0,0.2c1.3,25.4,15.5,38.6,15.7,38.7
		c0.1,0.1,0.4,0.1,0.5,0c0,0,0.1,0,0.1-0.1c0.5,1.3,1,2.7,1.6,4c1.2,2.6,2.5,5.1,4,7.4c0.8,1.4,1.7,2.8,2.6,4.2
		c1.4,2,2.9,3.9,4.6,5.6c9.3,10.8,24.9,17.3,41.8,17.3c27.4,0,49.8-17.1,50.5-38.3c0.1,0,0.2-0.1,0.3-0.1c0.1-0.1,13-14.3,14.9-37.6
		c0.4-1,5.8-14.6,5.8-25.8c0-0.2,0-0.4,0-0.6c0.1-0.1,0.1-0.2,0.1-0.3V62.3z M32.3,62.3c9.2-19.6,39.1-33.2,72.8-33.2
		c7.8,0,15.4,0.7,22.8,2.1c0.4,2.8,2.4,4.9,4.7,4.9c1.7,0,3.2-1.1,4.1-2.8c20.2,5.6,35.3,16.2,41.3,29.2v3.9c0,0,0,0,0,0
		c-10.4-19.2-39.6-32.1-72.8-32.1c-1,0-2.1,0-3.1,0c-0.6,0-1.1,0-1.7,0.1c-0.5,0-0.9,0-1.4,0.1c-0.5,0-1,0.1-1.5,0.1
		c-0.5,0-1,0.1-1.5,0.1c-0.6,0-1.1,0.1-1.7,0.1c-0.4,0-0.9,0.1-1.3,0.1c-0.6,0.1-1.3,0.1-1.9,0.2c-0.4,0-0.7,0.1-1.1,0.1
		c-0.6,0.1-1.2,0.2-1.8,0.2c-0.4,0.1-0.8,0.1-1.2,0.2c-0.6,0.1-1.2,0.2-1.8,0.3C84.7,35.9,84.4,36,84,36c-0.7,0.1-1.4,0.3-2.1,0.4
		c-0.3,0-0.5,0.1-0.8,0.1c-0.7,0.1-1.4,0.3-2.1,0.4c-0.2,0.1-0.5,0.1-0.7,0.1c-0.7,0.2-1.4,0.3-2.1,0.5c-0.2,0.1-0.5,0.1-0.7,0.2
		c-0.7,0.2-1.4,0.4-2.1,0.6c-0.2,0.1-0.4,0.1-0.6,0.2c-0.7,0.2-1.4,0.4-2.1,0.6c-0.2,0.1-0.4,0.1-0.5,0.2c-0.7,0.2-1.4,0.5-2.1,0.7
		c-0.2,0.1-0.3,0.1-0.5,0.2c-0.7,0.2-1.4,0.5-2.1,0.8c-0.1,0.1-0.3,0.1-0.4,0.2c-0.7,0.3-1.4,0.5-2.1,0.8c-0.1,0.1-0.3,0.1-0.4,0.2
		c-0.7,0.3-1.3,0.6-2,0.8c-0.1,0.1-0.3,0.1-0.4,0.2c-0.6,0.3-1.3,0.6-1.9,0.9c-0.1,0.1-0.3,0.1-0.5,0.2c-0.6,0.3-1.3,0.6-1.9,0.9
		c-0.1,0.1-0.3,0.1-0.4,0.2c-0.6,0.3-1.2,0.6-1.8,1c-0.1,0.1-0.3,0.1-0.4,0.2c-0.6,0.3-1.1,0.7-1.7,1c-0.1,0.1-0.3,0.2-0.4,0.3
		c-0.6,0.3-1.1,0.7-1.6,1c-0.1,0.1-0.3,0.2-0.4,0.3c-0.5,0.3-1,0.7-1.5,1c-0.1,0.1-0.3,0.2-0.4,0.3c-0.5,0.4-1,0.7-1.5,1.1
		c-0.1,0.1-0.3,0.2-0.4,0.3c-0.5,0.4-0.9,0.7-1.4,1.1c-0.2,0.1-0.3,0.2-0.5,0.4c-0.4,0.4-0.9,0.7-1.3,1.1c-0.2,0.1-0.3,0.3-0.5,0.4
		c-0.4,0.4-0.8,0.7-1.2,1.1c-0.2,0.1-0.3,0.3-0.5,0.4c-0.4,0.4-0.7,0.7-1.1,1.1c-0.2,0.2-0.3,0.3-0.5,0.5c-0.3,0.4-0.6,0.7-1,1.1
		c-0.2,0.2-0.3,0.4-0.5,0.5c-0.3,0.4-0.6,0.7-0.9,1.1c-0.2,0.2-0.3,0.4-0.5,0.6c-0.3,0.3-0.5,0.7-0.8,1.1c-0.2,0.2-0.3,0.4-0.5,0.6
		c-0.2,0.3-0.5,0.7-0.7,1c-0.2,0.2-0.3,0.5-0.5,0.7c-0.2,0.3-0.4,0.7-0.6,1c-0.1,0.2-0.3,0.5-0.4,0.7V62.3z M48.8,135.1
		c-5.2-11.6-6.7-24-4.1-35C47.2,89.2,53.4,81,62.2,77c8.8-4,19.1-3.2,29,2.1c9.9,5.3,18.3,14.7,23.5,26.2c0,0.1,0,0.1,0.1,0.2
		C102.4,88.9,83.3,81.2,68,88.1c-9,4.1-15.4,12.5-17.9,23.7c-2.1,9.2-1.4,19.5,1.9,29.4C50.8,139.2,49.7,137.2,48.8,135.1z
		 M51.1,112.1c2.5-10.9,8.7-19.1,17.4-23c3.7-1.7,7.6-2.5,11.6-2.5c13.3,0,27.3,8.8,36.4,23.1c0.3,0.8,0.6,1.5,0.8,2.3
		c0.1,0.2,0.2,0.3,0.4,0.3c0.1,0,0.3,0,0.4,0.1c0.4,0.8,0.9,1.6,1.3,2.4c0,0.1,0.1,0.1,0.1,0.2c0.4,0.8,0.8,1.7,1.2,2.5
		c0.7,1.5,1.3,3,1.8,4.5c2,5.4,3.1,10.9,3.4,16.2c-1.2-6.6-3.9-13.1-7.9-19c-6.3-9.1-15.2-15.5-25.1-18.2
		c-9.9-2.7-19.5-1.2-27.2,4.1c-7.6,5.3-12.3,13.9-13.2,24.1c-0.4,4.5,0,9.1,1.1,13.6C49.7,132.5,48.9,121.7,51.1,112.1z M53.5,129.3
		c0.9-9.9,5.4-18.2,12.8-23.3c5-3.5,10.8-5.2,17-5.2c3,0,6.1,0.4,9.3,1.3c9.6,2.6,18.3,8.9,24.5,17.8c6.2,8.9,9.1,19.2,8.3,29.2
		c0,0.5-0.1,1.1-0.2,1.6c-1.2,6.6-3.8,12.6-7.7,17.2c-0.8,0.9-1.6,1.8-2.4,2.6c-0.8,0.7-1.6,1.3-2.5,1.9c-7.4,5.2-16.7,6.6-26.3,4
		c-2.1-0.6-4.1-1.3-6.1-2.2c-0.5-0.2-1-0.5-1.5-0.8c-0.6-0.3-1.2-0.7-1.8-1c-0.1,0-0.1-0.1-0.2-0.1c-0.5-0.3-1-0.6-1.5-1
		c-0.1-0.1-0.2-0.1-0.2-0.2c-0.5-0.4-1.1-0.7-1.6-1.1c-0.3-0.2-0.6-0.4-0.9-0.7c-0.2-0.1-0.4-0.3-0.6-0.4c-0.4-0.3-0.8-0.6-1.2-1
		c0,0-0.1-0.1-0.1-0.1c-2.6-2.2-5.1-4.8-7.4-7.7c0,0,0,0,0,0c-1.4-1.8-2.8-3.7-4-5.7C54.8,146.4,52.7,137.7,53.5,129.3z
		 M107.3,180.9c-6.4,0-12.7-1-18.4-2.7c2.3,0.5,4.6,0.8,6.9,0.8c1.7,0,3.5-0.2,5.2-0.5c0,0,0,0,0,0c0.8-0.1,1.6-0.3,2.3-0.5
		c0,0,0,0,0,0c0.7-0.2,1.4-0.4,2.1-0.6c0.1-0.1,0.3-0.1,0.4-0.2c0.7-0.2,1.3-0.5,2-0.8c0,0,0,0,0.1,0c2.9-1.3,5.6-3.1,7.8-5.3
		c5.8-5,9.4-12.2,10.5-20.6c0.5-2.7,0.8-5.5,0.8-8.4c0-2.9-0.2-5.9-0.7-9c-0.8-5.3-2.4-10.8-4.8-16.1c-0.7-1.5-1.4-3-2.2-4.4
		c0.6,0.1,1.2,0.2,1.7,0.3c0,0,0,0,0.1,0c18.2,3.6,31.9,13,35.3,24.5c0.3,1.7,0.4,3.4,0.4,5.1C156.9,163.7,134.6,180.9,107.3,180.9z
		 M157.4,137.3C157.4,137.3,157.4,137.3,157.4,137.3C157.4,137.3,157.4,137.2,157.4,137.3c0-0.1-0.1-0.2-0.1-0.2
		c-0.1-0.3-0.2-0.6-0.3-0.9c0-0.1,0-0.1-0.1-0.2c-4.3-11.8-18.8-21.3-38.3-24.4c-0.4-0.8-0.9-1.5-1.3-2.2c-0.5-1.5-1.1-2.9-1.8-4.4
		c-5.3-11.8-13.8-21.2-24-26.7c-10.2-5.5-20.8-6.2-29.9-2.1c-9.1,4.1-15.5,12.5-18.1,23.8c-2.6,11.2-1.1,23.9,4.2,35.6
		c0.6,1.2,1.2,2.5,1.8,3.7c-4.1-5.2-10.8-16.2-12.1-32.7c0,0,0.1,0,0.1,0c0,0,0,0,0,0c0.2,0,0.4-0.3,0.4-0.5V95.7
		c0.3-0.6,0.7-1.1,1-1.7C50,77,76.1,65.7,105,65.7c29.8,0,56.7,12,67,30v10.1c-1.6,19.5-11,32.5-13.8,36.1
		C158.1,140.3,157.8,138.8,157.4,137.3z M173,103v-7.5c0-0.1,0-0.2-0.1-0.2C162.6,77,135.3,64.7,105,64.7
		c-26.5,0-50.7,9.4-63.3,24.1c-1.8,2.1-3.4,4.3-4.7,6.6c0,0.1-0.1,0.2-0.1,0.2v7.9C35.4,99,32.1,89,32.1,79.1c0-2.9,0.1-5.2,0.2-7
		c0,0,0,0,0,0c0-0.3,0.1-0.6,0.1-0.9c0-0.1,0-0.1,0-0.2c0-0.2,0-0.4,0.1-0.6c0-0.1,0-0.1,0-0.2c0-0.2,0.1-0.4,0.1-0.6
		c0-0.1,0-0.2,0-0.3c0-0.1,0-0.1,0-0.2c0-0.1,0-0.3,0.1-0.4c0,0,0,0,0-0.1c0.2-1.3,0.4-1.8,0.4-1.8c8.1-15,28.1-26,52.4-29.9
		c0.9-0.1,1.9-0.3,2.8-0.4c1.3-0.2,2.6-0.3,4-0.5c0.4,0,0.8-0.1,1.2-0.1c1.7-0.2,3.4-0.3,5.1-0.4c2.1-0.1,4.3-0.2,6.5-0.2
		c32.8,0,61.7,12.6,71.9,31.5c0.1,0.7,0.8,5.8,0.8,12.5c0,0,0,0,0,0c0,0.3,0,0.6,0,0.9C177.8,88.5,174.7,98.4,173,103z"/>
	<path fill="#DB5DC9" d="M95.2,173.9c5.5,0,10.8-1.5,15.3-4.7c13.6-9.5,15.5-30.5,4.2-46.7c-11.3-16.2-31.6-21.7-45.3-12.1
		c-13.6,9.5-15.5,30.5-4.2,46.7C72.7,167.9,84.3,173.9,95.2,173.9z M69.9,111.2c4.4-3.1,9.5-4.5,14.7-4.5c10.6,0,21.8,5.9,29.2,16.4
		c11,15.8,9.2,36.1-3.9,45.3c-13.2,9.2-32.9,3.9-43.9-11.9C55,140.7,56.8,120.4,69.9,111.2z"/>
	<path fill="#DB5DC9" d="M71.8,137.5c-0.7,4.5,0.4,9,3.1,12.8c2.7,3.8,6.6,6.4,11,7.3c1.1,0.2,2.3,0.3,3.4,0.3c3.3,0,6.4-1,9.1-2.8
		c3.6-2.5,6-6.4,6.6-10.9c0.7-4.5-0.4-9-3.1-12.8c-2.7-3.8-6.6-6.4-11-7.3c-4.4-0.9-8.9,0-12.5,2.5C74.9,129.1,72.5,133,71.8,137.5z
		 M79,127.4c2.5-1.8,5.5-2.7,8.5-2.7c1.1,0,2.1,0.1,3.2,0.3c4.2,0.9,7.9,3.3,10.4,6.9c2.5,3.6,3.5,7.9,2.9,12.1
		c-0.6,4.2-2.8,7.8-6.2,10.2c-3.4,2.4-7.5,3.2-11.7,2.3c-4.2-0.9-7.9-3.3-10.4-6.9c-2.5-3.6-3.5-7.9-2.9-12.1
		C73.4,133.4,75.7,129.8,79,127.4z"/>
	<path fill="#DB5DC9" d="M87,154.2c1,0.2,1.9,0.3,2.9,0.3c2.8,0,5.4-0.8,7.7-2.4c3.1-2.1,5.1-5.4,5.6-9.2c0.6-3.8-0.4-7.6-2.6-10.9
		h0c-4.6-6.7-13.6-8.5-19.9-4.1c-3.1,2.1-5.1,5.4-5.6,9.2c-0.6,3.8,0.4,7.6,2.6,10.9C79.9,151.2,83.2,153.4,87,154.2z M76.1,137.3
		c0.5-3.5,2.4-6.5,5.2-8.5c2.2-1.5,4.6-2.2,7.1-2.2c4.3,0,8.6,2.1,11.3,6c2.1,3,3,6.6,2.4,10.1c-0.5,3.5-2.4,6.5-5.2,8.5
		c-2.8,2-6.3,2.7-9.8,2c-3.5-0.7-6.6-2.8-8.7-5.8S75.6,140.8,76.1,137.3z"/>
	<path fill="#DB5DC9" d="M89.3,148.8c0.7,0.1,1.4,0.2,2.1,0.2c2,0,3.9-0.6,5.5-1.7c4.5-3.2,5.5-9.6,2.2-14.3c-1.6-2.3-4-3.9-6.6-4.4
		c-2.7-0.5-5.4,0-7.6,1.5c-4.5,3.2-5.5,9.6-2.2,14.3C84.3,146.7,86.6,148.2,89.3,148.8z M85.4,130.9c1.5-1,3.2-1.5,4.9-1.5
		c0.6,0,1.2,0.1,1.9,0.2c2.4,0.5,4.6,1.9,6,4c3,4.3,2.1,10.1-1.9,12.9c-2,1.4-4.4,1.9-6.8,1.4c-2.4-0.5-4.6-1.9-6-4
		C80.5,139.5,81.4,133.7,85.4,130.9z"/>
	<path fill="#DB5DC9" d="M90.8,144.8c0.5,0.1,1,0.2,1.5,0.2c1.4,0,2.8-0.4,4-1.2c1.6-1.1,2.6-2.8,2.9-4.7c0.3-1.9-0.2-3.9-1.3-5.6
		c-1.1-1.6-2.8-2.8-4.8-3.2c-1.9-0.4-3.9,0-5.4,1.1c-1.6,1.1-2.6,2.8-2.9,4.7c-0.3,1.9,0.2,3.9,1.3,5.6
		C87.2,143.3,88.9,144.4,90.8,144.8z M85.7,136.2c0.3-1.7,1.1-3.1,2.5-4.1c1-0.7,2.2-1.1,3.4-1.1c0.4,0,0.8,0,1.3,0.1
		c1.7,0.3,3.1,1.3,4.1,2.8c1,1.4,1.4,3.2,1.2,4.8c-0.3,1.7-1.1,3.1-2.5,4.1c-1.3,0.9-3,1.3-4.7,0.9c-1.7-0.3-3.1-1.3-4.1-2.8
		C85.9,139.6,85.5,137.9,85.7,136.2z"/>
	<path fill="#DB5DC9" d="M71.5,128.7c1.1,0,2.1-0.3,3.1-1c2.5-1.7,3-5.3,1.2-7.9c-0.9-1.3-2.2-2.1-3.7-2.4c-1.5-0.3-3,0-4.2,0.8
		c-2.5,1.7-3,5.3-1.2,7.9C67.9,127.8,69.7,128.7,71.5,128.7z M68.5,119c0.7-0.5,1.6-0.8,2.5-0.8c0.3,0,0.6,0,0.9,0.1
		c1.2,0.3,2.3,1,3,2c1.5,2.2,1.1,5.1-1,6.5s-4.9,0.8-6.5-1.3S66.4,120.4,68.5,119z"/>
	<path fill="#DB5DC9" d="M132.4,41.5c-8.8-2-18.1-3.1-27.7-3.1c-2,0-4.1,0-6.1,0.1c-0.3,0-0.5,0.2-0.5,0.5c0,0.3,0.3,0.5,0.5,0.5
		c2-0.1,4-0.1,6-0.1c9.5,0,18.7,1,27.4,3.1c0,0,0.1,0,0.1,0c0.2,0,0.4-0.2,0.5-0.4C132.9,41.9,132.7,41.6,132.4,41.5z"/>
	<path fill="#DB5DC9" d="M98.6,44.2c2-0.1,4.1-0.1,6.2-0.1c9.5,0,18.7,1,27.3,3c0,0,0.1,0,0.1,0c0.2,0,0.4-0.2,0.5-0.4
		c0.1-0.3-0.1-0.5-0.4-0.6c-8.8-2-18-3.1-27.6-3.1c-2.1,0-4.2,0.1-6.2,0.1c-0.3,0-0.5,0.2-0.5,0.5C98.1,44,98.3,44.2,98.6,44.2z"/>
	<path fill="#DB5DC9" d="M98.6,48.8c2-0.1,4.1-0.1,6.1-0.1c9.5,0,18.7,1,27.3,3c0,0,0.1,0,0.1,0c0.2,0,0.4-0.2,0.5-0.4
		c0.1-0.3-0.1-0.5-0.4-0.6c-8.8-2-18-3.1-27.6-3.1c-2.1,0-4.1,0-6.2,0.1c-0.3,0-0.5,0.2-0.5,0.5C98.1,48.6,98.4,48.8,98.6,48.8z"/>
	<path fill="#DB5DC9" d="M132.3,55.4c-8.8-2-18-3.1-27.6-3.1c-2,0-4.1,0-6.1,0.1c-0.3,0-0.5,0.2-0.5,0.5c0,0.3,0.3,0.5,0.5,0.5
		c2-0.1,4-0.1,6-0.1c9.5,0,18.7,1,27.3,3c0,0,0.1,0,0.1,0c0.2,0,0.4-0.2,0.5-0.4C132.8,55.7,132.6,55.4,132.3,55.4z"/>
</g>
</svg>
