<?xml version="1.0" encoding="utf-8"?>
<!-- Generator: Adobe Illustrator 23.0.1, SVG Export Plug-In . SVG Version: 6.00 Build 0)  -->
<svg version="1.0" id="Layer_1" xmlns="http://www.w3.org/2000/svg" xmlns:xlink="http://www.w3.org/1999/xlink" x="0px" y="0px"
	 viewBox="0 0 13 35" enable-background="new 0 0 13 35" xml:space="preserve">
<g>
	<g>
		<g>
			<g>
				<path fill="#999999" d="M6.5,21.5c-3.6,0-6.5-2.9-6.5-6.4V6.4C0,2.9,2.9,0,6.5,0S13,2.9,13,6.4v8.7C13,18.6,10.1,21.5,6.5,21.5z
					 M6.5,1C3.5,1,1,3.4,1,6.4v8.7c0,3,2.5,5.4,5.5,5.4h0c3,0,5.5-2.4,5.5-5.4V6.4C12,3.4,9.5,1,6.5,1z"/>
			</g>
			<g>
				<path fill="#999999" d="M6.4,10.3c-0.3,0-0.5-0.2-0.5-0.5v-6c0-0.3,0.2-0.5,0.5-0.5C6.7,3.2,7,3.5,7,3.7v6
					C7,10.1,6.7,10.3,6.4,10.3z"/>
			</g>
		</g>
		<g>
			<path fill="#999999" d="M6.5,35c-0.1,0-0.3,0-0.4-0.1l-5.8-5.8c-0.2-0.2-0.2-0.5,0-0.7s0.5-0.2,0.7,0l5.5,5.4l5.5-5.4
				c0.2-0.2,0.5-0.2,0.7,0s0.2,0.5,0,0.7l-5.8,5.8C6.8,35,6.6,35,6.5,35z"/>
		</g>
		<g>
			<path fill="#999999" d="M6.5,29.8c-0.1,0-0.3,0-0.4-0.1l-5.8-5.8c-0.2-0.2-0.2-0.5,0-0.7s0.5-0.2,0.7,0l5.5,5.4l5.5-5.4
				c0.2-0.2,0.5-0.2,0.7,0s0.2,0.5,0,0.7l-5.8,5.8C6.8,29.7,6.6,29.8,6.5,29.8z"/>
		</g>
	</g>
</g>
</svg>
