<?xml version="1.0" encoding="UTF-8" standalone="no"?>
<svg
   xmlns:dc="http://purl.org/dc/elements/1.1/"
   xmlns:cc="http://creativecommons.org/ns#"
   xmlns:rdf="http://www.w3.org/1999/02/22-rdf-syntax-ns#"
   xmlns:svg="http://www.w3.org/2000/svg"
   xmlns="http://www.w3.org/2000/svg"
   xmlns:sodipodi="http://sodipodi.sourceforge.net/DTD/sodipodi-0.dtd"
   xmlns:inkscape="http://www.inkscape.org/namespaces/inkscape"
   id="Layer_1"
   data-name="Layer 1"
   viewBox="0 0 16 13"
   version="1.1"
   sodipodi:docname="lapozogomb_01.svg"
   inkscape:version="0.92.3 (2405546, 2018-03-11)">
  <metadata
     id="metadata17">
    <rdf:RDF>
      <cc:Work
         rdf:about="">
        <dc:format>image/svg+xml</dc:format>
        <dc:type
           rdf:resource="http://purl.org/dc/dcmitype/StillImage" />
      </cc:Work>
    </rdf:RDF>
  </metadata>
  <sodipodi:namedview
     pagecolor="#ffffff"
     bordercolor="#666666"
     borderopacity="1"
     objecttolerance="10"
     gridtolerance="10"
     guidetolerance="10"
     inkscape:pageopacity="0"
     inkscape:pageshadow="2"
     inkscape:window-width="1533"
     inkscape:window-height="845"
     id="namedview15"
     showgrid="false"
     inkscape:zoom="18.153846"
     inkscape:cx="2.0233051"
     inkscape:cy="6.5"
     inkscape:window-x="67"
     inkscape:window-y="27"
     inkscape:window-maximized="1"
     inkscape:current-layer="Layer_1" />
  <defs
     id="defs4">
    <style
       id="style2">.cls-1{fill:#000926;}.cls-2{fill:#999;}</style>
  </defs>
  <title
     id="title6">lapozogomb_01</title>
  <path
     class="cls-2"
     d="M6.75,13.5a.51.51,0,0,1-.36-.15l-5.75-6a.5.5,0,0,1,0-.7l5.75-6a.5.5,0,0,1,.71,0,.5.5,0,0,1,0,.71L1.69,7l5.42,5.65a.5.5,0,0,1,0,.71A.52.52,0,0,1,6.75,13.5Z"
     id="path10"
     transform="translate(-0.5 -0.5)" />
  <path
     class="cls-2"
     d="M16,13.5a.51.51,0,0,1-.36-.15l-5.75-6a.5.5,0,0,1,0-.7l5.75-6a.5.5,0,0,1,.71,0,.51.51,0,0,1,0,.71L10.94,7l5.42,5.65a.51.51,0,0,1,0,.71A.54.54,0,0,1,16,13.5Z"
     transform="translate(-0.5 -0.5)"
     id="path12" />
</svg>
