<?xml version="1.0" encoding="UTF-8" standalone="no"?>
<!-- Created with Inkscape (http://www.inkscape.org/) -->

<svg
   xmlns:dc="http://purl.org/dc/elements/1.1/"
   xmlns:cc="http://creativecommons.org/ns#"
   xmlns:rdf="http://www.w3.org/1999/02/22-rdf-syntax-ns#"
   xmlns:svg="http://www.w3.org/2000/svg"
   xmlns="http://www.w3.org/2000/svg"
   xmlns:sodipodi="http://sodipodi.sourceforge.net/DTD/sodipodi-0.dtd"
   xmlns:inkscape="http://www.inkscape.org/namespaces/inkscape"
   width="41.116497mm"
   height="9.4987936mm"
   viewBox="0 0 41.116497 9.4987936"
   version="1.1"
   id="svg21416"
   inkscape:version="0.92.3 (2405546, 2018-03-11)"
   sodipodi:docname="logo.svg">
  <defs
     id="defs21410" />
  <sodipodi:namedview
     id="base"
     pagecolor="#ffffff"
     bordercolor="#666666"
     borderopacity="1.0"
     inkscape:pageopacity="0.0"
     inkscape:pageshadow="2"
     inkscape:zoom="0.35"
     inkscape:cx="69.12904"
     inkscape:cy="-162.04957"
     inkscape:document-units="mm"
     inkscape:current-layer="layer1"
     showgrid="false"
     fit-margin-top="0"
     fit-margin-left="0"
     fit-margin-right="0"
     fit-margin-bottom="0"
     inkscape:window-width="1533"
     inkscape:window-height="845"
     inkscape:window-x="67"
     inkscape:window-y="27"
     inkscape:window-maximized="1" />
  <metadata
     id="metadata21413">
    <rdf:RDF>
      <cc:Work
         rdf:about="">
        <dc:format>image/svg+xml</dc:format>
        <dc:type
           rdf:resource="http://purl.org/dc/dcmitype/StillImage" />
        <dc:title></dc:title>
      </cc:Work>
    </rdf:RDF>
  </metadata>
  <g
     inkscape:label="Layer 1"
     inkscape:groupmode="layer"
     id="layer1"
     transform="translate(-87.542941,-96.458926)">
    <g
       transform="matrix(0.26458333,0,0,0.26458333,-31.519557,-1026.6706)"
       id="g11962">
      <g
         id="g11956">
        <g
           id="g11942">
          <path
             style="fill:#666666"
             inkscape:connector-curvature="0"
             d="m 509.2,4247 12.5,32.3 c 0,0.1 0,0.1 0,0.2 v 0.2 c 0,0.4 -0.3,0.7 -0.7,0.7 l -8.3,0.1 c -0.3,0 -0.5,-0.2 -0.6,-0.4 l -1.9,-4.9 -10.9,0.2 -1.8,4.9 c -0.1,0.3 -0.3,0.4 -0.6,0.4 l -8.3,0.1 c -0.4,0 -0.7,-0.3 -0.7,-0.7 v -0.2 c 0,-0.1 0,-0.2 0,-0.2 l 11.6,-32.6 c 0.1,-0.3 0.3,-0.4 0.6,-0.4 l 8.4,-0.1 c 0.4,0 0.6,0.2 0.7,0.4 z m -2.1,20 -2.4,-6.2 -2.2,6.3 z"
             id="path11940" />
        </g>
        <g
           id="g11946">
          <path
             style="fill:#666666"
             inkscape:connector-curvature="0"
             d="m 544.1,4253.5 c 0,0.4 -0.3,0.7 -0.7,0.7 l -7.5,0.1 0.4,25.2 c 0,0.4 -0.3,0.7 -0.7,0.7 l -8.2,0.1 c -0.4,0 -0.7,-0.3 -0.7,-0.7 l -0.4,-25.2 -7.5,0.1 c -0.4,0 -0.7,-0.3 -0.7,-0.7 L 518,4247 c 0,-0.4 0.3,-0.7 0.7,-0.7 l 24.5,-0.4 c 0.4,0 0.7,0.3 0.7,0.7 z"
             id="path11944" />
        </g>
        <g
           id="g11950">
          <path
             style="fill:#666666"
             inkscape:connector-curvature="0"
             d="m 567.6,4279.7 -19,0.3 c -0.4,0 -0.7,-0.3 -0.7,-0.7 l -0.5,-32.7 c 0,-0.4 0.3,-0.7 0.7,-0.7 l 8.2,-0.1 c 0.4,0 0.7,0.3 0.7,0.7 l 0.4,25.4 10.1,-0.1 c 0.4,0 0.7,0.3 0.7,0.7 l 0.1,6.6 c 0,0.3 -0.3,0.6 -0.7,0.6 z"
             id="path11948" />
        </g>
        <g
           id="g11954">
          <path
             style="fill:#666666"
             inkscape:connector-curvature="0"
             d="m 605.4,4262.4 c 0.1,9.8 -7.8,17.9 -17.7,18 -9.9,0.1 -18.1,-7.7 -18.3,-17.5 -0.1,-9.8 7.8,-17.9 17.7,-18 10,-0.1 18.1,7.7 18.3,17.5 z m -9.8,0.2 c -0.1,-4.5 -3.8,-8.1 -8.4,-8 -4.5,0.1 -8.2,3.8 -8.1,8.2 0.1,4.5 3.8,8.1 8.4,8 4.5,0 8.2,-3.7 8.1,-8.2 z"
             id="path11952" />
        </g>
      </g>
      <g
         id="g11960">
        <path
           style="fill:#666666"
           inkscape:connector-curvature="0"
           d="m 450,4246.6 v 34.2 h 34.2 v -34.2 z m 5.6,3.8 18.6,1.5 -20.4,20.4 z m 23,27.1 -19.1,-1.6 21,-21 z"
           id="path11958" />
      </g>
    </g>
  </g>
</svg>
