<?xml version="1.0" encoding="utf-8"?>
<!-- Generator: Adobe Illustrator 23.0.1, SVG Export Plug-In . SVG Version: 6.00 Build 0)  -->
<svg version="1.0" id="Layer_1" xmlns="http://www.w3.org/2000/svg" xmlns:xlink="http://www.w3.org/1999/xlink" x="0px" y="0px"
	 viewBox="0 0 210 210" enable-background="new 0 0 210 210" xml:space="preserve">
<g>
	<path fill="#DB5DC9" d="M171,127.8c-1.3-26.6-8.8-51.3-20.9-69.6c-9-13.4-19.9-22.5-31.7-26.4c0.4-0.5,0.6-1.1,0.6-1.7
		c0-0.8-0.5-1.6-1.3-2.3V21c0.9-0.7,1.3-1.5,1.3-2.4c0-3.1-6.1-5.5-14-5.5s-14,2.4-14,5.5c0,0.8,0.5,1.6,1.3,2.4v6.8
		c-0.8,0.7-1.3,1.5-1.3,2.3c0,0.6,0.2,1.1,0.6,1.7c-11.8,3.9-22.8,12.9-31.7,26.4c-12.2,18.2-19.6,43-20.9,69.6c0,0.1,0,0.3,0.1,0.3
		c0.1,1.3,0.8,2.7,2.2,3.9l0.2,1.1c0,0.1,0.1,0.2,0.1,0.3l11.3,10.4c0,0,0,0,0,0c0,0,0,0,0,0l4.7,3.6c0.1,0.1,0.2,0.1,0.4,0.1v12.1
		c0,12.3,20.4,37,47.1,37.1c0.1,0,0.1,0,0.2,0c26.7,0,46.7-24.4,47-37.1c0.1-3.4,0.1-7.5,0.1-12.1c0.1,0,0.2-0.1,0.3-0.1l4.1-4
		c0,0,0,0,0.1,0c0.2,0.1,0.4,0,0.5-0.1l11-10.3c0,0,0,0,0,0l0,0c0,0,0,0,0,0c0.1-0.1,0.1-0.1,0.1-0.2c0,0,0,0,0,0c0,0,0,0,0,0
		l0.1-0.6c1.5-1.3,2.3-2.7,2.4-4.1c0,0,0.1-0.1,0.1-0.1C171,127.9,171,127.9,171,127.8z M105,14.2c7.8,0,13,2.3,13,4.5
		c0,0.3-0.1,0.6-0.3,0.9c0-0.1,0-0.1,0-0.2c0-0.1,0-0.2-0.1-0.2c0-0.1-0.1-0.2-0.1-0.2c0-0.1-0.1-0.1-0.1-0.2
		c-0.1-0.1-0.1-0.2-0.2-0.2c-0.1-0.1-0.1-0.1-0.2-0.2c-0.1-0.1-0.2-0.1-0.2-0.2c-0.1-0.1-0.2-0.1-0.2-0.2c-0.1-0.1-0.2-0.1-0.3-0.2
		c-0.1-0.1-0.2-0.1-0.3-0.2c-0.1-0.1-0.2-0.1-0.4-0.2c-0.1-0.1-0.2-0.1-0.3-0.2c-0.1-0.1-0.3-0.1-0.4-0.2c-0.1,0-0.2-0.1-0.4-0.1
		c-0.1-0.1-0.3-0.1-0.5-0.1c-0.1,0-0.3-0.1-0.4-0.1c-0.2,0-0.3-0.1-0.5-0.1c-0.1,0-0.3-0.1-0.4-0.1c-0.2,0-0.4-0.1-0.5-0.1
		c-0.2,0-0.3-0.1-0.5-0.1c-0.2,0-0.4-0.1-0.6-0.1c-0.2,0-0.3-0.1-0.5-0.1c-0.2,0-0.4-0.1-0.6-0.1c-0.2,0-0.3,0-0.5-0.1
		c-0.2,0-0.4,0-0.6-0.1c-0.2,0-0.3,0-0.5,0c-0.2,0-0.5,0-0.7-0.1c-0.1,0-0.3,0-0.4,0c-0.3,0-0.5,0-0.8,0c-0.1,0-0.2,0-0.4,0
		c-0.4,0-0.8,0-1.1,0c-0.4,0-0.8,0-1.1,0c-0.1,0-0.2,0-0.4,0c-0.3,0-0.5,0-0.8,0c-0.2,0-0.3,0-0.5,0c-0.2,0-0.4,0-0.7,0
		c-0.2,0-0.3,0-0.5,0c-0.2,0-0.4,0-0.6,0.1c-0.2,0-0.3,0-0.5,0.1c-0.2,0-0.4,0.1-0.6,0.1C99.3,16,99.1,16,99,16
		c-0.2,0-0.4,0.1-0.6,0.1c-0.2,0-0.3,0.1-0.5,0.1c-0.2,0-0.3,0.1-0.5,0.1c-0.2,0-0.3,0.1-0.4,0.1c-0.2,0-0.3,0.1-0.5,0.1
		c-0.1,0-0.3,0.1-0.4,0.1c-0.2,0-0.3,0.1-0.5,0.1c-0.1,0-0.2,0.1-0.4,0.1c-0.1,0.1-0.3,0.1-0.4,0.2c-0.1,0-0.2,0.1-0.3,0.2
		c-0.1,0.1-0.3,0.1-0.4,0.2c-0.1,0.1-0.2,0.1-0.3,0.2c-0.1,0.1-0.2,0.1-0.3,0.2c-0.1,0.1-0.2,0.1-0.2,0.2c-0.1,0.1-0.2,0.1-0.3,0.2
		c-0.1,0.1-0.1,0.1-0.2,0.2c-0.1,0.1-0.1,0.2-0.2,0.2c0,0.1-0.1,0.1-0.1,0.2c0,0.1-0.1,0.2-0.1,0.3c0,0.1,0,0.1-0.1,0.2
		c0,0.1,0,0.1-0.1,0.2C92.1,19.3,92,19,92,18.7C92,16.5,97.2,14.2,105,14.2z M93.3,27.1v-6.3v-1c0,0,0,0,0-0.1c0-1.5,5-3.2,11.7-3.2
		c0.8,0,1.6,0,2.4,0.1c5.4,0.3,9.3,1.8,9.3,3.2c0,0,0,0.1,0,0.1v1v6.3c-0.5-0.3-1-0.5-1.6-0.8c-0.1,0-0.1-0.1-0.2-0.1
		c-0.3-0.1-0.5-0.2-0.8-0.3c-0.1,0-0.2-0.1-0.4-0.1c-0.3-0.1-0.5-0.2-0.8-0.2c-0.2-0.1-0.4-0.1-0.6-0.1c-0.4-0.1-0.7-0.2-1.1-0.2
		c-0.3-0.1-0.6-0.1-0.9-0.2c-0.2,0-0.4-0.1-0.6-0.1c-0.3,0-0.6-0.1-1-0.1c-0.2,0-0.4,0-0.6-0.1c-0.4,0-0.7-0.1-1.1-0.1
		c-0.2,0-0.3,0-0.5,0c-0.5,0-1.1,0-1.6,0s-1.1,0-1.6,0c-0.2,0-0.3,0-0.5,0c-0.4,0-0.7,0-1.1,0.1c-0.2,0-0.4,0-0.6,0.1
		c-0.3,0-0.7,0.1-1,0.1c-0.2,0-0.4,0-0.6,0.1c-0.3,0-0.6,0.1-0.9,0.2c-0.4,0.1-0.7,0.1-1.1,0.2c-0.2,0-0.4,0.1-0.6,0.1
		c-0.3,0.1-0.5,0.2-0.8,0.2c-0.1,0-0.2,0.1-0.4,0.1c-0.3,0.1-0.5,0.2-0.8,0.3c-0.1,0-0.1,0.1-0.2,0.1C94.3,26.6,93.8,26.8,93.3,27.1
		z M92.7,31.5c-0.4-0.4-0.6-0.9-0.6-1.3c0-0.6,0.4-1.2,1.1-1.7c0,0,0,0,0,0c1.8-1.4,5.5-2.4,9.7-2.7c0.1,0,0.3,0,0.4,0
		c0.2,0,0.4,0,0.5,0c0.4,0,0.8,0,1.2,0s0.8,0,1.2,0c0.2,0,0.4,0,0.5,0c0.1,0,0.3,0,0.4,0c4.2,0.3,7.9,1.3,9.7,2.7c0,0,0,0,0,0
		c0.7,0.6,1.1,1.1,1.1,1.7c0,0.4-0.2,0.9-0.6,1.3c-0.8-0.3-1.7-0.5-2.5-0.7c-0.2,0-0.3-0.1-0.5-0.1c-0.1,0-0.2,0-0.3-0.1
		c-3-0.7-6-1-9-1c-3,0-6,0.3-9,1c-0.1,0-0.2,0-0.3,0.1c-0.1,0-0.3,0.1-0.4,0.1C94.4,31,93.5,31.3,92.7,31.5z M60.7,58.8
		c9.4-14.2,21.1-23.3,33.6-26.7c0.1,0,0.1,0,0.2,0c0.4-0.1,0.9-0.2,1.3-0.3c6.1-1.4,12.3-1.4,18.4,0c0.4,0.1,0.8,0.2,1.2,0.3
		c0.1,0,0.2,0.1,0.3,0.1c0.5,0.1,1,0.3,1.5,0.4c0,0,0,0,0,0c11.9,3.7,23,12.7,32.1,26.3c11.6,17.4,18.9,40.7,20.6,66
		c-5.8-7.4-32.1-12.9-64.8-12.9c-26.2,0-48.4,3.5-59.1,8.8c0,0,0,0,0,0c-0.1,0.1-0.2,0.1-0.4,0.2c-0.1,0-0.2,0.1-0.3,0.1
		c-0.1,0-0.1,0.1-0.2,0.1c-0.1,0.1-0.2,0.1-0.3,0.2c-0.1,0.1-0.3,0.2-0.4,0.2c-0.2,0.1-0.4,0.2-0.6,0.4c-0.2,0.1-0.3,0.2-0.5,0.3
		c-0.2,0.1-0.3,0.2-0.5,0.3c-0.2,0.1-0.3,0.2-0.5,0.3c-0.1,0.1-0.3,0.2-0.4,0.3c-0.1,0.1-0.3,0.2-0.4,0.3c-0.1,0.1-0.2,0.2-0.3,0.3
		c-0.1,0.1-0.3,0.2-0.4,0.4c-0.1,0.1-0.2,0.2-0.3,0.3c-0.1,0.1-0.2,0.2-0.3,0.3c0,0,0,0,0,0c0,0,0,0,0,0c0,0-0.1,0.1-0.1,0.1
		C41.8,99.6,49.1,76.2,60.7,58.8z M157.2,142.2c0,0-0.1-0.1-0.1-0.1c0-0.1-0.1-0.1-0.1-0.2c-0.1-0.1-0.1-0.2-0.2-0.3
		c-0.1-0.2-0.2-0.3-0.3-0.5c0,0,0,0,0,0c-4.6-5.4-24.4-9.4-48.8-9.6c-0.8,0-1.7,0-2.5,0c-0.8,0-1.6,0-2.4,0c-0.3,0-0.5,0-0.8,0
		c-0.5,0-1.1,0-1.6,0c-0.3,0-0.6,0-0.9,0c-0.5,0-0.9,0-1.4,0c-0.3,0-0.7,0-1,0c-0.4,0-0.9,0-1.3,0.1c-0.4,0-0.7,0-1,0
		c-0.4,0-0.9,0-1.3,0.1c-0.4,0-0.7,0-1.1,0.1c-0.4,0-0.8,0-1.2,0.1c-0.4,0-0.7,0-1.1,0.1c-0.4,0-0.8,0.1-1.2,0.1
		c-0.4,0-0.7,0.1-1.1,0.1c-0.4,0-0.8,0.1-1.2,0.1c-0.4,0-0.7,0.1-1.1,0.1c-0.4,0-0.8,0.1-1.2,0.1c-0.4,0-0.7,0.1-1,0.1
		c-0.4,0-0.8,0.1-1.2,0.1c-0.3,0-0.7,0.1-1,0.1c-0.4,0-0.8,0.1-1.1,0.1c-0.3,0-0.7,0.1-1,0.1c-0.4,0-0.7,0.1-1.1,0.1
		c-0.3,0-0.7,0.1-1,0.1c-0.4,0.1-0.7,0.1-1.1,0.2c-0.3,0-0.6,0.1-1,0.1c-0.3,0.1-0.7,0.1-1,0.2c-0.3,0.1-0.6,0.1-0.9,0.2
		c-0.3,0.1-0.7,0.1-1,0.2c-0.3,0.1-0.6,0.1-0.9,0.2c-0.3,0.1-0.6,0.1-1,0.2c-0.3,0.1-0.6,0.1-0.9,0.2c-0.3,0.1-0.6,0.1-0.9,0.2
		c-0.3,0.1-0.6,0.1-0.8,0.2c-0.3,0.1-0.6,0.1-0.9,0.2c-0.3,0.1-0.5,0.1-0.8,0.2c-0.3,0.1-0.6,0.2-0.9,0.2c-0.2,0.1-0.5,0.1-0.7,0.2
		c-0.3,0.1-0.6,0.2-0.9,0.3c-0.2,0.1-0.4,0.1-0.7,0.2c-0.3,0.1-0.6,0.2-1,0.3c-0.2,0.1-0.3,0.1-0.5,0.2c-0.5,0.2-0.9,0.3-1.3,0.5
		c-0.2,0.1-0.3,0.1-0.5,0.2c-0.3,0.1-0.5,0.2-0.8,0.3c-0.2,0.1-0.3,0.2-0.5,0.2c-0.2,0.1-0.4,0.2-0.6,0.3c-0.2,0.1-0.3,0.2-0.5,0.2
		c-0.2,0.1-0.4,0.2-0.6,0.3c-0.1,0.1-0.3,0.2-0.4,0.3c-0.2,0.1-0.3,0.2-0.5,0.3c-0.1,0.1-0.3,0.2-0.4,0.3c-0.1,0.1-0.3,0.2-0.4,0.3
		c-0.1,0.1-0.2,0.2-0.3,0.3c-0.1,0.1-0.2,0.2-0.3,0.3c-0.1,0.1-0.2,0.2-0.3,0.3c-0.1,0.1-0.2,0.2-0.3,0.3c-0.1,0.1-0.1,0.2-0.2,0.3
		c-0.1,0.1-0.1,0.2-0.2,0.3c-0.1,0.1-0.1,0.2-0.1,0.3c0,0.1-0.1,0.1-0.1,0.2L42.6,133c0-0.1,0.1-0.1,0.1-0.2
		c0.1-0.1,0.2-0.2,0.3-0.4c0.1-0.1,0.1-0.2,0.2-0.2c5.7-6.7,32-11.9,62-11.9c2.8,0,5.6,0,8.4,0.1c26.7,0.9,49.1,5.7,53.8,12l0,0.1
		L157.2,142.2z M167.6,131.4C167.6,131.4,167.6,131.4,167.6,131.4c-0.1-0.1-0.2-0.2-0.3-0.3c-0.1-0.1-0.2-0.2-0.4-0.4
		c-0.1-0.1-0.2-0.2-0.4-0.3c-0.1-0.1-0.3-0.2-0.4-0.3c-0.1-0.1-0.3-0.2-0.4-0.3c-0.2-0.1-0.3-0.2-0.5-0.3c-0.1-0.1-0.3-0.2-0.5-0.3
		c-0.2-0.1-0.3-0.2-0.5-0.3c-0.2-0.1-0.3-0.2-0.5-0.3c-0.2-0.1-0.4-0.2-0.6-0.3c-0.2-0.1-0.4-0.2-0.6-0.3c-0.2-0.1-0.4-0.2-0.6-0.3
		c-0.2-0.1-0.4-0.2-0.6-0.3c-0.2-0.1-0.5-0.2-0.7-0.3c-0.2-0.1-0.4-0.2-0.7-0.3c-0.2-0.1-0.5-0.2-0.7-0.3c-0.2-0.1-0.5-0.2-0.7-0.3
		c-0.3-0.1-0.5-0.2-0.8-0.3c-0.3-0.1-0.5-0.2-0.8-0.3c-0.3-0.1-0.5-0.2-0.8-0.3c-0.3-0.1-0.5-0.2-0.8-0.2c-0.3-0.1-0.6-0.2-0.9-0.3
		c-0.3-0.1-0.6-0.2-0.8-0.2c-0.3-0.1-0.6-0.2-0.9-0.2c-0.3-0.1-0.6-0.2-0.9-0.2c-0.3-0.1-0.6-0.2-1-0.2c-0.3-0.1-0.6-0.1-0.9-0.2
		c-0.3-0.1-0.7-0.2-1-0.2c-0.3-0.1-0.6-0.1-1-0.2c-0.3-0.1-0.7-0.1-1-0.2c-0.3-0.1-0.7-0.1-1-0.2c-0.4-0.1-0.7-0.1-1.1-0.2
		c-0.3-0.1-0.7-0.1-1-0.2c-0.4-0.1-0.8-0.1-1.1-0.2c-0.4-0.1-0.7-0.1-1.1-0.2c-0.4-0.1-0.8-0.1-1.2-0.2c-0.4-0.1-0.7-0.1-1.1-0.2
		c-0.4-0.1-0.8-0.1-1.2-0.2c-0.4-0.1-0.8-0.1-1.1-0.2c-0.4-0.1-0.8-0.1-1.2-0.2c-0.4,0-0.8-0.1-1.2-0.1c-0.4-0.1-0.8-0.1-1.3-0.2
		c-0.4,0-0.8-0.1-1.2-0.1c-0.4,0-0.9-0.1-1.3-0.1c-0.4,0-0.8-0.1-1.2-0.1c-0.4,0-0.9-0.1-1.3-0.1c-0.4,0-0.8-0.1-1.2-0.1
		c-0.5,0-0.9-0.1-1.4-0.1c-0.4,0-0.8-0.1-1.2-0.1c-0.5,0-1-0.1-1.4-0.1c-0.4,0-0.8-0.1-1.2-0.1c-0.5,0-1-0.1-1.5-0.1
		c-0.4,0-0.8,0-1.2-0.1c-0.5,0-1,0-1.5-0.1c-0.4,0-0.8,0-1.2-0.1c-0.5,0-1,0-1.6-0.1c-0.4,0-0.8,0-1.2,0c-0.6,0-1.1,0-1.7,0
		c-0.4,0-0.7,0-1.1,0c-0.6,0-1.3,0-2,0c-0.3,0-0.6,0-0.9,0c-1,0-1.9,0-2.9,0c-1,0-2,0-3,0c-0.3,0-0.7,0-1,0c-0.6,0-1.3,0-1.9,0
		c-0.4,0-0.8,0-1.2,0c-0.6,0-1.1,0-1.7,0c-0.4,0-0.8,0-1.2,0c-0.5,0-1.1,0-1.6,0.1c-0.4,0-0.9,0-1.3,0.1c-0.5,0-1,0-1.5,0.1
		c-0.4,0-0.9,0.1-1.3,0.1c-0.5,0-1,0.1-1.4,0.1c-0.5,0-0.9,0.1-1.4,0.1c-0.5,0-0.9,0.1-1.3,0.1c-0.5,0-0.9,0.1-1.4,0.1
		c-0.4,0-0.9,0.1-1.3,0.1c-0.5,0-0.9,0.1-1.4,0.1c-0.4,0-0.8,0.1-1.3,0.1c-0.4,0-0.9,0.1-1.3,0.1c-0.4,0-0.8,0.1-1.2,0.1
		c-0.4,0.1-0.9,0.1-1.3,0.2c-0.4,0-0.8,0.1-1.1,0.1c-0.4,0.1-0.9,0.1-1.3,0.2c-0.4,0-0.7,0.1-1.1,0.2c-0.4,0.1-0.9,0.1-1.3,0.2
		c-0.3,0.1-0.7,0.1-1,0.2c-0.4,0.1-0.9,0.1-1.3,0.2c-0.3,0.1-0.7,0.1-1,0.2c-0.4,0.1-0.9,0.1-1.3,0.2c-0.3,0.1-0.6,0.1-0.9,0.2
		c-0.4,0.1-0.8,0.2-1.3,0.2c-0.3,0.1-0.6,0.1-0.9,0.2c-0.4,0.1-0.8,0.2-1.2,0.3c-0.3,0.1-0.5,0.1-0.8,0.2c-0.4,0.1-0.9,0.2-1.3,0.3
		c-0.2,0-0.4,0.1-0.6,0.1c-1.7,0.4-3.3,0.8-4.8,1.3c0,0-0.1,0-0.1,0c-0.4,0.1-0.7,0.2-1.1,0.4c-0.2,0.1-0.4,0.1-0.6,0.2
		c-0.3,0.1-0.6,0.2-0.9,0.3c-0.2,0.1-0.4,0.2-0.6,0.2c-0.3,0.1-0.6,0.2-0.8,0.3c-0.2,0.1-0.4,0.2-0.6,0.2c-0.3,0.1-0.5,0.2-0.8,0.3
		c-0.2,0.1-0.4,0.2-0.6,0.3c-0.2,0.1-0.5,0.2-0.7,0.3c-0.2,0.1-0.4,0.2-0.6,0.3c-0.2,0.1-0.4,0.2-0.6,0.3c-0.2,0.1-0.4,0.2-0.6,0.3
		c-0.2,0.1-0.4,0.2-0.6,0.3c-0.2,0.1-0.3,0.2-0.5,0.3c-0.2,0.1-0.3,0.2-0.5,0.3c-0.2,0.1-0.3,0.2-0.5,0.3c-0.2,0.1-0.3,0.2-0.4,0.3
		c-0.1,0.1-0.3,0.2-0.4,0.3c-0.1,0.1-0.3,0.2-0.4,0.3c-0.1,0.1-0.2,0.2-0.3,0.3c-0.1,0.1-0.2,0.2-0.3,0.3c0,0-0.1,0.1-0.1,0.1
		l-1-6.5c0.1-0.1,0.2-0.3,0.3-0.4c0,0,0,0,0,0c0.2-0.2,0.4-0.5,0.7-0.7c0,0,0,0,0,0c6.2-5.4,25.6-9.7,49.3-10.9c0.5,0,1,0,1.5-0.1
		c0.2,0,0.4,0,0.7,0c3.7-0.1,7.4-0.2,11.3-0.2c6.8,0,13.4,0.2,19.6,0.7c12.8,1,24.1,2.9,32.1,5.3c0.1,0,0.1,0,0.2,0.1
		c0.1,0,0.2,0.1,0.3,0.1c0.3,0.1,0.5,0.2,0.8,0.3c0.2,0.1,0.4,0.1,0.6,0.2c0.2,0.1,0.5,0.2,0.7,0.2c0.3,0.1,0.5,0.2,0.8,0.3
		c0.2,0.1,0.5,0.2,0.7,0.3c0.3,0.1,0.5,0.2,0.8,0.3c0.2,0.1,0.4,0.2,0.6,0.3c0.2,0.1,0.5,0.2,0.7,0.3c0.2,0.1,0.4,0.2,0.6,0.3
		c0.2,0.1,0.4,0.2,0.6,0.3c0.2,0.1,0.4,0.2,0.5,0.3c0.2,0.1,0.4,0.2,0.6,0.3c0.2,0.1,0.3,0.2,0.5,0.3c0.2,0.1,0.4,0.2,0.5,0.3
		c0.1,0.1,0.3,0.2,0.4,0.3c0.2,0.1,0.3,0.2,0.5,0.4c0.1,0.1,0.3,0.2,0.4,0.3c0.1,0.1,0.3,0.2,0.4,0.4c0.1,0.1,0.2,0.2,0.3,0.3
		c0.1,0.1,0.2,0.2,0.3,0.4c0.1,0.1,0.1,0.2,0.2,0.2L167.6,131.4z M40.1,128.1c0-0.1,0.1-0.1,0.1-0.2c0-0.4,0.1-0.8,0.2-1.2l0.6,3.7
		C40.4,129.5,40.1,128.8,40.1,128.1z M101.4,135.8c0.5,0,0.9,0,1.4,0c0.8,0,1.5,0,2.3,0c0.8,0,1.6,0,2.3,0c0.4,0,0.8,0,1.2,0
		c0.3,0,0.6,0,1,0c0.6,0,1.1,0,1.7,0c0.1,0,0.2,0,0.3,0c4.1,0.1,8,0.4,11.6,0.8v8.5c-1.2-2-3.4-3.3-5.9-3.3H92.8
		c-2.5,0-4.6,1.3-5.8,3.3v-8.4c4.3-0.5,8.9-0.7,13.7-0.9C100.9,135.9,101.2,135.8,101.4,135.8z M65,141.5c2.5-1,5.7-2,9.5-2.8
		c0.1,0,0.1,0,0.2,0c0.4-0.1,0.8-0.2,1.2-0.2c0.3-0.1,0.6-0.1,0.9-0.2c0.3-0.1,0.6-0.1,0.9-0.2c0.2,0,0.3-0.1,0.5-0.1
		c2.5-0.4,5.1-0.8,7.9-1.1v11.7c0,0.1,0,0.1,0,0.2v26.7c0,0.1,0,0.1,0,0.2v6.1c0,0.6-0.3,1.2-0.9,1.5c-0.5,0.3-1.2,0.3-1.7-0.1
		C71.9,175.8,65,164.9,65,158.5V141.5z M123.3,158.4c-1.7-8.4-9.2-14.8-18.1-14.8c-9,0-16.5,6.4-18.1,14.9v-10.1
		c0.1-3.1,2.7-5.6,5.8-5.6h24.6c3.2,0,5.8,2.6,5.8,5.8V158.4z M122.6,162.2c0,9.6-7.9,17.5-17.5,17.5s-17.5-7.9-17.5-17.5
		s7.9-17.5,17.5-17.5S122.6,152.5,122.6,162.2z M87,165.7c1.7,8.5,9.2,14.9,18.1,14.9c8.9,0,16.4-6.3,18.1-14.8v9.5
		c0,3.2-2.6,5.8-5.8,5.8H92.8c-3.1,0-5.7-2.5-5.8-5.6V165.7z M124.3,136.8c3.6,0.4,7.1,0.9,10.2,1.6c0.3,0.1,0.6,0.1,1,0.2
		c0.1,0,0.2,0.1,0.4,0.1c3.8,0.8,7,1.8,9.5,2.9c0,4.4,0,14.1-0.1,16.9c-0.1,6.4-6.8,17.3-17.7,24.5c-0.6,0.4-1.4,0.4-2.1,0.1
		c-0.7-0.4-1.1-1.1-1.1-1.8V136.8z M151.2,159.7c-0.1,6.3-5.4,15.3-13.1,22.5c-5.5,5.1-17,13.7-32.8,13.7c-0.1,0-0.1,0-0.2,0
		c-25.3-0.1-46.1-24-46.1-36.1v-14.2c0.8-1.2,2.5-2.5,5.1-3.6v16.6c0,6.6,7.1,18,18.9,25.5c0.4,0.3,0.9,0.4,1.4,0.4
		c0.4,0,0.9-0.1,1.3-0.3c0.9-0.5,1.4-1.4,1.4-2.3v-2.8c1.2,2,3.4,3.3,5.8,3.3h24.6c2.5,0,4.7-1.3,5.9-3.3v2.3c0,1.1,0.6,2.2,1.6,2.7
		c0.5,0.3,1,0.4,1.5,0.4c0.6,0,1.1-0.2,1.7-0.5c11.2-7.4,18-18.6,18.2-25.3c0.1-2.8,0.1-11.9,0.1-16.5c2.4,1.1,4.1,2.3,4.9,3.5
		c0,0.1,0.1,0.1,0.1,0.2c0,0,0,0,0,0.1C151.4,151.1,151.3,155.8,151.2,159.7z M152.6,146.1c-0.1-0.3-0.2-0.5-0.3-0.7c0,0,0,0,0,0
		c-0.1-0.1-0.1-0.2-0.2-0.3c0,0,0-0.1-0.1-0.1c-2.5-3.7-11.1-6.7-23.1-8.5c0,0-0.1,0-0.1,0c-0.6-0.1-1.1-0.2-1.7-0.2
		c-0.1,0-0.2,0-0.4,0c-0.5-0.1-1-0.1-1.5-0.2c-0.2,0-0.4,0-0.6-0.1c-0.4,0-0.9-0.1-1.3-0.1c-0.3,0-0.5-0.1-0.8-0.1
		c-0.4,0-0.8-0.1-1.2-0.1c-0.3,0-0.6-0.1-0.9-0.1c-0.4,0-0.7-0.1-1.1-0.1c-0.3,0-0.7-0.1-1-0.1c-0.3,0-0.7,0-1-0.1
		c-0.4,0-0.7,0-1.1-0.1c-0.3,0-0.7,0-1-0.1c-0.4,0-0.8,0-1.2-0.1c-0.3,0-0.7,0-1,0c-0.4,0-0.8,0-1.2,0c-0.4,0-0.8,0-1.1,0
		c-0.4,0-0.7,0-1.1,0c-0.5,0-0.9,0-1.4,0c-0.3,0-0.6,0-0.9,0c-0.8,0-1.5,0-2.3,0c-0.8,0-1.5,0-2.3,0c-0.4,0-0.8,0-1.2,0
		c-0.3,0-0.6,0-1,0c-0.6,0-1.1,0-1.7,0c-0.1,0-0.3,0-0.4,0c-0.7,0-1.3,0.1-2,0.1c0,0,0,0-0.1,0c-9.8,0.4-18.5,1.7-25.2,3.4
		c-0.1,0-0.1,0-0.2,0c-0.3,0.1-0.5,0.1-0.8,0.2c-0.3,0.1-0.5,0.1-0.8,0.2c-0.1,0-0.2,0.1-0.3,0.1c-0.9,0.3-1.8,0.6-2.7,0.9
		c-0.1,0-0.1,0-0.2,0.1c-0.3,0.1-0.5,0.2-0.8,0.3c-0.2,0.1-0.3,0.1-0.5,0.2c-0.2,0.1-0.3,0.1-0.5,0.2c-0.1,0-0.1,0.1-0.2,0.1
		c0,0,0,0,0,0c-3.1,1.3-5.3,2.8-6.3,4.4c0,0,0,0.1,0,0.1c-0.2,0.4-0.4,0.7-0.5,1.1l-3.8-2.9c0,0,0-0.1,0-0.1c0-0.1,0-0.2,0.1-0.2
		c0-0.1,0.1-0.2,0.1-0.3c0-0.1,0.1-0.2,0.1-0.2c0-0.1,0.1-0.2,0.1-0.3c0.1-0.1,0.1-0.2,0.2-0.2c0.1-0.1,0.1-0.2,0.2-0.3
		c0.1-0.1,0.1-0.2,0.2-0.2c0.1-0.1,0.2-0.2,0.3-0.3c0.1-0.1,0.2-0.2,0.3-0.2c0.1-0.1,0.2-0.2,0.3-0.3c0.1-0.1,0.2-0.2,0.3-0.2
		c0.1-0.1,0.2-0.2,0.4-0.2c0.1-0.1,0.3-0.2,0.4-0.2c0.1-0.1,0.3-0.2,0.4-0.2c0.1-0.1,0.3-0.2,0.4-0.2c0.2-0.1,0.3-0.2,0.5-0.2
		c0.2-0.1,0.3-0.2,0.5-0.2c0.2-0.1,0.4-0.2,0.5-0.2c0.2-0.1,0.4-0.2,0.5-0.2c0.2-0.1,0.4-0.2,0.6-0.2c0.2-0.1,0.4-0.2,0.6-0.2
		c0.2-0.1,0.4-0.2,0.6-0.2s0.4-0.1,0.6-0.2c0.2-0.1,0.4-0.1,0.7-0.2c0.2-0.1,0.5-0.1,0.7-0.2c0.2-0.1,0.5-0.1,0.7-0.2
		c0.2-0.1,0.5-0.1,0.7-0.2c0.3-0.1,0.5-0.1,0.8-0.2c0.3-0.1,0.5-0.1,0.8-0.2c0.3-0.1,0.5-0.1,0.8-0.2c0.3-0.1,0.5-0.1,0.8-0.2
		c0.3-0.1,0.6-0.1,0.9-0.2c0.3-0.1,0.6-0.1,0.9-0.2c0.3-0.1,0.6-0.1,0.9-0.2c0.3-0.1,0.6-0.1,0.9-0.2c0.3-0.1,0.6-0.1,1-0.2
		c0.3-0.1,0.6-0.1,0.9-0.2c0.3-0.1,0.7-0.1,1-0.2c0.3-0.1,0.7-0.1,1-0.2c0.3-0.1,0.7-0.1,1-0.2c0.3-0.1,0.7-0.1,1-0.2
		c0.4-0.1,0.7-0.1,1.1-0.1c0.4,0,0.7-0.1,1.1-0.1c0.4,0,0.8-0.1,1.1-0.1c0.4,0,0.7-0.1,1.1-0.1c0.4,0,0.8-0.1,1.2-0.1
		c0.4,0,0.7-0.1,1.1-0.1c0.4,0,0.8-0.1,1.2-0.1c0.4,0,0.8-0.1,1.1-0.1c0.4,0,0.9-0.1,1.3-0.1c0.4,0,0.8-0.1,1.2-0.1
		c0.4,0,0.9-0.1,1.4-0.1c0.4,0,0.8-0.1,1.2-0.1c0.5,0,1-0.1,1.4-0.1c0.4,0,0.7,0,1.1-0.1c0.5,0,1,0,1.5-0.1c0.4,0,0.7,0,1.1,0
		c0.5,0,1.1,0,1.7,0c0.4,0,0.7,0,1.1,0c0.6,0,1.3,0,1.9,0c0.3,0,0.6,0,0.9,0c0.9,0,1.9,0,2.8,0c0.8,0,1.7,0,2.5,0
		c17.6,0.2,33.4,2.4,42,5.7c0.2,0.1,0.4,0.1,0.5,0.2c0.1,0,0.2,0.1,0.3,0.1c2.1,0.9,3.8,1.8,4.8,2.8c0,0,0.1,0.1,0.1,0.1
		c0.1,0.1,0.2,0.2,0.3,0.3c0.1,0.1,0.2,0.2,0.3,0.3c0,0,0.1,0.1,0.1,0.1c0.1,0.2,0.2,0.3,0.3,0.5L152.6,146.1z M168.8,130.5l0.7-4.1
		c0.2,0.5,0.4,1,0.4,1.5C169.9,128.8,169.5,129.6,168.8,130.5z"/>
	<path fill="#DB5DC9" d="M105.1,158.9c-1.8,0-3.3,1.5-3.3,3.3s1.5,3.3,3.3,3.3s3.3-1.5,3.3-3.3S107,158.9,105.1,158.9z M105.1,164.5
		c-1.3,0-2.3-1-2.3-2.3c0-1.3,1-2.3,2.3-2.3c1.3,0,2.3,1,2.3,2.3C107.5,163.4,106.4,164.5,105.1,164.5z"/>
	<path fill="#DB5DC9" d="M105.1,154.4c-4.3,0-7.8,3.5-7.8,7.8s3.5,7.8,7.8,7.8s7.8-3.5,7.8-7.8S109.4,154.4,105.1,154.4z
		 M105.1,168.9c-3.7,0-6.8-3-6.8-6.8c0-3.7,3-6.8,6.8-6.8s6.8,3,6.8,6.8C111.9,165.9,108.9,168.9,105.1,168.9z"/>
	<path fill="#DB5DC9" d="M105.1,152.2c-5.5,0-9.9,4.5-9.9,9.9c0,5.5,4.5,9.9,9.9,9.9c5.5,0,9.9-4.5,9.9-9.9
		C115.1,156.7,110.6,152.2,105.1,152.2z M105.1,171.1c-4.9,0-8.9-4-8.9-8.9c0-4.9,4-8.9,8.9-8.9c4.9,0,8.9,4,8.9,8.9
		C114.1,167.1,110.1,171.1,105.1,171.1z"/>
	<path fill="#DB5DC9" d="M105.1,146.5c-8.7,0-15.7,7-15.7,15.7s7,15.7,15.7,15.7s15.7-7,15.7-15.7S113.8,146.5,105.1,146.5z
		 M105.1,176.9c-8.1,0-14.7-6.6-14.7-14.7c0-8.1,6.6-14.7,14.7-14.7c8.1,0,14.7,6.6,14.7,14.7C119.8,170.3,113.3,176.9,105.1,176.9z
		"/>
	<path fill="#DB5DC9" d="M55.2,129.4c-0.6-0.8-1.7-0.9-2.4-0.4l-0.3,0.2c-0.4,0.3-0.6,0.7-0.7,1.1c-0.1,0.5,0,0.9,0.3,1.3l2.7,3.6
		c0.3,0.5,0.9,0.7,1.4,0.7c0.4,0,0.7-0.1,1-0.3l0.3-0.2c0.8-0.6,0.9-1.7,0.4-2.4L55.2,129.4z M56.9,134.7l-0.3,0.2
		c-0.3,0.2-0.8,0.2-1-0.2l-2.7-3.6c-0.1-0.2-0.2-0.4-0.1-0.5c0-0.2,0.1-0.4,0.3-0.5l0.3-0.2c0.1-0.1,0.3-0.1,0.4-0.1
		c0.2,0,0.5,0.1,0.6,0.3l2.7,3.6C57.3,133.9,57.2,134.4,56.9,134.7z"/>
	<path fill="#DB5DC9" d="M157.3,129.3L157,129c-0.4-0.3-0.8-0.4-1.3-0.3c-0.5,0.1-0.9,0.3-1.1,0.7l-2.7,3.6
		c-0.3,0.4-0.4,0.8-0.3,1.3c0.1,0.5,0.3,0.9,0.7,1.1l0.3,0.2c0.3,0.2,0.7,0.3,1,0.3c0.5,0,1.1-0.2,1.4-0.7l2.7-3.6
		c0.3-0.4,0.4-0.8,0.3-1.3S157.7,129.5,157.3,129.3z M156.8,131.1l-2.7,3.6c-0.2,0.3-0.7,0.4-1,0.2l-0.3-0.2c0,0,0,0,0,0
		c-0.2-0.1-0.3-0.3-0.3-0.5c0-0.2,0-0.4,0.1-0.5l2.7-3.6c0.1-0.2,0.3-0.3,0.5-0.3c0,0,0.1,0,0.1,0c0.2,0,0.3,0,0.4,0.1l0.3,0.2
		c0.2,0.1,0.3,0.3,0.3,0.5S157,130.9,156.8,131.1z"/>
	<path fill="#DB5DC9" d="M115.5,104.9c0,0.3,0.2,0.5,0.5,0.5c13.5,0.6,25.8,2.2,35.4,4.7c0,0,0.1,0,0.1,0c0.2,0,0.4-0.1,0.5-0.4
		c0.1-0.3-0.1-0.5-0.4-0.6c-9.7-2.5-22-4.1-35.6-4.7C115.7,104.4,115.5,104.7,115.5,104.9z"/>
	<path fill="#DB5DC9" d="M115.6,102.3c0,0.3,0.2,0.5,0.5,0.5c13.3,0.6,25.3,2.1,34.8,4.5c0,0,0.1,0,0.1,0c0.2,0,0.4-0.2,0.5-0.4
		c0.1-0.3-0.1-0.5-0.4-0.6c-9.6-2.4-21.7-4-35-4.6C115.9,101.8,115.6,102,115.6,102.3z"/>
	<path fill="#DB5DC9" d="M115.6,99.6c0,0.3,0.2,0.5,0.5,0.5c12.7,0.5,24.3,2,33.7,4.3c0,0,0.1,0,0.1,0c0.2,0,0.4-0.2,0.5-0.4
		c0.1-0.3-0.1-0.5-0.4-0.6c-9.4-2.3-21.1-3.7-33.8-4.3C115.8,99.1,115.6,99.3,115.6,99.6z"/>
	<path fill="#DB5DC9" d="M115.4,96.9c0,0.3,0.2,0.5,0.5,0.5c12.1,0.5,23.4,1.9,32.5,3.9c0,0,0.1,0,0.1,0c0.2,0,0.4-0.2,0.5-0.4
		c0.1-0.3-0.1-0.5-0.4-0.6c-9.2-2.1-20.5-3.5-32.7-4C115.6,96.4,115.4,96.7,115.4,96.9z"/>
	<path fill="#DB5DC9" d="M115.5,94.8c11.7,0.5,22.7,1.8,31.7,3.7c0,0,0.1,0,0.1,0c0.2,0,0.4-0.2,0.5-0.4c0.1-0.3-0.1-0.5-0.4-0.6
		c-9.1-2-20.1-3.2-31.8-3.7c-0.3,0-0.5,0.2-0.5,0.5C115,94.5,115.2,94.8,115.5,94.8z"/>
</g>
</svg>
